<?xml version="1.0" encoding="utf-8"?>
<!-- Generator: Adobe Illustrator 16.0.0, SVG Export Plug-In . SVG Version: 6.00 Build 0)  -->
<!DOCTYPE svg PUBLIC "-//W3C//DTD SVG 1.1//EN" "http://www.w3.org/Graphics/SVG/1.1/DTD/svg11.dtd">
<svg version="1.1" id="Layer_1" xmlns="http://www.w3.org/2000/svg" xmlns:xlink="http://www.w3.org/1999/xlink" x="0px" y="0px"
	 width="205px" height="333px" viewBox="152.5 89.5 205 333" enable-background="new 152.5 89.5 205 333" xml:space="preserve">
<path fill="#FFFFFF" d="M162.293,322.2c3.101-3.101,8-3,11.3,0l74.4,66.399V104c0-4.4,3.6-8,8-8c4.399,0,8,3.6,8,8v284.6
	l74.399-66.3c3.4-2.899,8.101-3.2,11.2-0.1c3.101,3.1,3.3,8.5,0.101,11.399c0,0-87,79.2-88,80c-1,0.801-2.801,2.4-5.7,2.4
	c-2.9,0-4.9-1.6-5.7-2.4c-0.8-0.8-88-80-88-80c-1.5-1.5-2.3-3.6-2.3-5.699C159.993,325.8,160.793,323.8,162.293,322.2z"/>
</svg>
