<?xml version="1.0" encoding="utf-8"?>
<!-- Generator: Adobe Illustrator 16.0.0, SVG Export Plug-In . SVG Version: 6.00 Build 0)  -->
<!DOCTYPE svg PUBLIC "-//W3C//DTD SVG 1.1//EN" "http://www.w3.org/Graphics/SVG/1.1/DTD/svg11.dtd">
<svg version="1.1" id="Layer_1" xmlns="http://www.w3.org/2000/svg" xmlns:xlink="http://www.w3.org/1999/xlink" x="0px" y="0px"
	 width="580px" height="326px" viewBox="0 0 580 326" enable-background="new 0 0 580 326" xml:space="preserve">
<path fill-rule="evenodd" clip-rule="evenodd" fill="#230F02" d="M297.4,271.2c1.8,1.4,3.8,2.7,5.5,4.3c3.4,3,4.8,3.2,7.6-0.5
	c2.9-3.9,5.3-8.2,7.9-12.4c2,1.2,4.8,2.8,7.5,4.5c1.9,1.2,3.3,0.9,4.9-0.7c4.4-4.3,8.1-8.8,8-16.6c3.9,3.1,6.9,5.4,10.5,8.3
	c2.8-4.4,5.5-8.6,8.5-13.2c1.8,2.1,3.7,3.9,5.2,5.9c1.5,1.9,2.9,2.3,4.7,0.6c1.9-1.9,3.8-3.9,5.4-6.1c1.6-2.3,2.9-2.4,4.6-0.3
	c1.9,2.3,3.8,4.5,6.1,7.2c1.8-2.2,3.2-3.7,4.3-5.4c1.8-2.9,3.4-2.9,5.4-0.4c0.9,1.2,2,2.2,3.1,3.2c3.9,3.3,5.4,3.1,8.8-0.9
	c0.4-0.5,0.7-1,1.1-1.5c1.8-2.1,3.2-2.1,4.3,0.6c0.8,1.9,1.6,3.9,2.6,6.3c2.6-1.7,4.9-3.2,7.6-4.9c1.9,4.3,3.8,8.5,6,13.4
	c2.9-1.9,5.7-3.8,9.1-6c0.8,3.5,1.5,6.8,2.3,10.9c3.6-1.4,6.9-2.8,10.5-4.2c0.6,3.3,1.2,6.4,1.9,10.2c2.5-1.3,4.6-2.4,7.4-3.9
	c0.3,2.3,0.7,4.3,0.9,6.3c0.3,4.7,1.1,5.2,5.5,3.4c2-0.8,4-1.6,6.7-2.6c1.8-10.4,2.7-21.7,1.8-33c-0.1-1.1-0.9-2.4-1.8-3.1
	c-4.5-3.5-9.5-5.6-15.3-4.8c-6.7,1-12.5-0.2-18-4.3c-1.6-1.2-4.2-1.5-6.2-1.2c-6.8,0.9-13.5,2.4-20.3,3.3c-1.6,0.2-4-0.2-5-1.4
	c-7.2-8-16.6-9-26.4-9.1c-8.3-0.1-16.5-0.3-24.3-3.4c-1.6-0.6-3.3-1.4-4.4-2.6c-0.9-0.9-1.8-3-1.3-3.7c0.7-1.1,2.8-2.4,3.9-2
	c3.1,1,6,2.7,9.1,4.1c2.1,0.9,4.2,2.3,6.4,2.5c7.5,0.7,15,1,22.4,1.5c2.6,0.2,4.2-0.2,4.8-3.2c0.2-0.9,2.4-2.3,3.4-2.1
	c2.6,0.5,5.1,2.2,7.7,2.6c8.9,1.4,17.8,0.3,26.2-2.5c3-1,5.6-4.1,7.6-6.8c0.8-1.1-0.2-4-1-5.7c-1.1-2.2-2.9-3.9-4.5-5.9
	c3.1-2,6.4-1.6,8.7,1.2c1.9,2.4,3.3,5.2,5.2,8.3c3.5-4.6-0.9-9.7,1.4-14.3c0.6,0.6,1.2,1,1.2,1.3c0.5,5.8,5.4,8.4,8.8,12.1
	c1.1,1.1,3.4,1.6,5,1.5c0.8,0,1.7-2.1,2.1-3.4c4-14.8,2.1-29.8,0.3-44.7c-1.1-9.5-2.5-19.1-7.4-27.7c-0.6-1.1,0.1-3.1,0.5-4.6
	c2.3-9.1,5.6-18,6.7-27.1c1.6-13.1,2.5-26.4-1.4-39.4c-0.3-0.8-0.2-2.2,0.3-2.8c6.2-7.1,8.6-16,11.7-24.5c1.2-3.4,2.3-6.9,3.5-10.3
	c0.4-1.1,1-2.1,1.5-3.1c0.3,0,0.7,0.1,1,0.1c0.3,1.3,0.8,2.7,0.8,4c0,8-0.6,16-0.2,24c0.7,16.3,1.6,32.6,3.1,48.9
	c1.5,16.7,3.5,33.3,5.6,49.9c2.7,21.3,5.8,42.5,8.7,63.8c0.5,3.5,1.3,6.9,1.9,10.3c1.1,5.7,1.2,5.7,6.9,5.1c1.7,6,3.3,12.1,5,18.2
	c0.4,0.1,0.8,0.3,1.2,0.4c1.4-2.7,3.2-5.3,4.3-8.2c6.6-17.5,10.2-35.7,11.8-54.4c1.8-21.3,4.1-42.5,5.3-63.9
	c2.1-34.8,3.7-69.6-1.8-104.3c-0.3-2,0.2-4.1,0.3-6.1c0.5,0,1-0.1,1.5-0.1c0.6,1.5,1.4,3.1,1.8,4.7c3,11.1,9.8,20.1,16.7,29
	c1.6,2.1,2.2,4,1,6.1c-6.4,11.9-5.5,24.3-3,36.9c1,5.1,2.4,10.2,4.2,15.1c1.7,4.4,4.2,8.4,6.5,12.9c-7,7.3-7.4,17.1-8.3,26.9
	c-1.2,13.7-2.7,27.4,0.3,41c1,4.4,3.5,8.4,5.2,12.7c0.5,1.3,1.3,3,0.8,4c-9.3,19.5-9.2,40.5-9.1,61.4c0.1,16,0.2,32,4.5,47.6
	c1.4,5,3.5,9.8,5.8,15.8c-2.1-0.7-3.9-0.7-4.8-1.7c-3.7-3.7-7.2-7.6-10.7-11.5c-0.8-0.9-1.5-1.9-2.3-3c-0.9,1.1-1.6,1.9-2.3,2.6
	c-5.3-3.2-5.3-3.2-7.6,1.3c-2.6-0.6-5.1-1.8-7.4-1.5c-2.5,0.3-4.7,2-8,3.5c0.6-2.1,0.9-3.9,1.7-5.5c0.9-1.7,2.3-3.2,3.6-4.7
	c2.4-2.7,2.1-5.6-0.7-7.8c-2.1-1.6-4.4-0.9-5.3,1.6c-4.1,11.7-12,17.9-24.3,17.9c-7,0-14.1-1.2-21.1-2.4c-5.6-1-5.5-1.4-8.4,3.7
	c-0.9,1.6-2.2,2.9-3.3,4.4c-0.4-0.2-0.8-0.4-1.3-0.5c0.1-1.4,0-2.8,0.4-4.1c1.6-6.2,1.6-6.1-3.9-9.6c-10.5-6.7-20.7-14-31.7-19.9
	c-7.4-4-15.7-6.4-23.8-8.6c-8.9-2.4-17.6,0-26,3.2c-13.9,5.3-27.5,11.3-41.5,16.3c-20.6,7.5-41.8,10.9-63.7,6.9
	c-4.2-0.8-6.6,0.8-8.7,4.5c1.2,0.4,2.2,0.8,3.3,0.9c5.1,0.7,10.4,2.7,15.2,1.8c8.8-1.7,16.8,1.2,25.1,2.3c5.7,0.8,7.9,4.6,5.3,9.7
	c-2.3-1.8-4.4-4.1-7-5.5c-4.5-2.4-4.9,2-5.8,3.8c-3.1-1.2-5.8-3.2-8.5-3.2c-2.8,0-5.5,1.9-9,3.1c0.7,0.4,0.3,0.3,0.3,0.2
	c-0.3-6.2-0.8-6.7-7.1-6.7c-7.5-0.1-15-0.1-22.5-0.3c-2.2-0.1-4.5-0.7-6.4-1.7c-3.4-1.6-3.6-4-0.6-6.3c2.7-2,5.6-3.6,8.8-5.5
	c-5.8-2.4-11.2-4.4-16.4-6.7c-12-5.5-23.9-11.3-36-16.6c-5.1-2.3-10.6-3.9-15.9-5.6c-14.1-4.7-27.7-1.8-40.9,3.6
	c-14,5.7-27.8,11.8-41.9,17.1c-17.8,6.8-35.6,5.9-53.4-1c-12.8-5-23.1-13.1-30.1-24.7c-4.8-8.1-7.5-17.2-8.6-26.9
	c-1.2-9.8,0.2-18.9,3.9-27.7c6.4-15,18-24.2,32.9-30.3c18.9-7.8,38.6-12.8,58.4-17.3c8.5-1.9,16.5-4.9,22.6-11.6
	c5.9-6.7,9.6-13.9,7.3-23.2c-0.2-0.9,0.1-2,0.8-3.1c3.7,6.7,5.2,13.7,3.7,22.2c5.8,0.4,11.4,0.8,17.6,1.2
	c-1.8,5.8-7.4,8.2-10.6,12.7c4.9,5.1,8.6,10.6,5.4,18c-0.5,1.3-2.2,2-4,3.6c0-3.3,0.3-5.4-0.1-7.4c-1.8-9.6-11.4-14.8-21.8-11.9
	c-20.6,5.7-41.2,11.2-61.6,17.3c-13.3,3.9-25.5,10.1-35.4,20.3c-11.3,11.6-13.3,25.6-10,40.7c1,4.7,3.7,8.7,8.5,10.8
	c1,0.4,1.9,2.1,2.1,3.3c0.5,3.8,2.6,6.2,6.4,7.4c1.4,0.5,2.9,1.8,3.4,3.1c1.9,4.4,3.8,5,8.1,2.6c0.7-0.4,2-0.3,2.8,0.1
	c1,0.5,1.7,1.4,2.5,2.2c2.7,2.9,5.5,3.6,8.5,0.3c1.5-1.7,3.1-1.4,5-0.2c4.8,2.9,9.9,4.2,15.3,2c0.8-0.3,1.9-0.7,2.2-1.3
	c1.9-3.8,4.5-2.6,7.5-1.6c5.9,2.1,8.4,1.2,12-3.9c0.9-1.3,1.9-2.6,2.9-4.1c2.5,0.5,5,0.9,7.6,1.4c4,0.8,7.2-0.4,9.3-3.9
	c1.4-2.5,3.2-3.4,6.1-3.2c7.9,0.8,13.8-2.6,17.3-9c4.6,1,8.9,3.1,12.7,2.4c3.6-0.7,6.5-4.4,9.9-6.8c-0.1-0.1,0.2,0,0.3,0.1
	c4.3,6.3,4.3,6.3,11.2,2.9c1-0.5,2-0.9,3.3-1.4c1.1,1.8,2.3,3.3,3.2,5.1c1.4,2.7,3.4,2.9,5.9,1.7c3-1.4,5.6-2.1,7.6,1.9
	c1,2.1,3.1,4.3,5.3,5.1c2.3,0.9,5.4,0.9,7.7,0.2c3.5-1.1,4.6-0.1,5.4,3.2c1.5,5.7,2.4,6.1,8.2,4.5c6.3-1.8,6.3-1.8,9.1,3.9
	c2.1,4.4,2.1,4.4,6.6,2.2c1.2-0.6,2.4-1.3,3.9-2c1,1.8,2.1,3.6,3.1,5.4c1.4,2.7,3.2,3.3,5.6,1.2c1.3-1.1,2.7-2.1,4.4-3.3
	c1.3,2,2.7,3.6,3.6,5.5c1.4,3.3,3.4,3.2,5.8,1.3c1.9-1.4,3.6-3,5.6-4.7c2,1.6,3.8,3.2,5.8,4.7c2.3,1.8,4.5,1.9,6.5-0.5
	C292.7,276.4,294.8,274.1,297.4,271.2z M273.5,295.3c0.3,0.5,0.5,0.9,0.8,1.4c0.7,0.2,1.3,0.5,2,0.7c13.3,3.2,26.7,3.1,39.7-0.8
	c17.7-5.3,34.9-12,52.4-18c7.8-2.7,15.5-5.7,23.5-7.2c12.5-2.4,24.1,1.7,34.8,7.5c11,6,21.6,13,32.3,19.5c8.2,5,7.2,6.3,10.4-4.2
	c1-3.5-0.4-4.5-3.3-5.6c-8.1-3.2-16.2-6.5-24-10.3c-8.3-4-16.1-9.1-24.4-13c-14.6-6.9-30.2-8.6-45.7-4.6c-12,3-23.5,8.1-35.3,12.3
	c-10.7,3.8-21.2,8-32.1,11.1c-11.2,3.2-22.9,5-34.4,2.6c-9.4-2-18.6-4.8-27.6-8c-17.9-6.3-33.5-17.7-52.4-22
	c-10.8-2.5-21.5-3.8-32.1-0.3c-12.8,4.2-25.3,9.3-38,13.9c-17.1,6.2-34.5,10.8-53,9.4c-11.8-0.9-22.9-3.5-31.4-12.1
	c-5-5.1-9-11.2-13.5-16.9c-0.9-1.1-1.8-2.1-2.7-3.1c-0.4,0.2-0.8,0.4-1.2,0.7c1.1,3.2,1.7,6.7,3.3,9.6
	c11.5,21.2,30.1,31.8,53.7,33.5c16.2,1.2,31.2-4.6,45.8-10.9c9.8-4.3,19.5-9.1,29.6-12.6c10.8-3.7,22.1-6.5,33.4-2.9
	c10.6,3.3,21,7.2,31.2,11.5c12.5,5.3,24.7,11.5,37.2,16.8c8.1,3.4,8.3,3,13.8-4.2c0.3-0.4,0.7-0.6,1.5-1.3c1.9,5.9,6.3,4.6,10.7,3.1
	c0.2,0.5,0.3,1,0.5,1.5C277.2,293.1,275.4,294.2,273.5,295.3z M480.4,46.8c-0.4-0.1-0.7-0.1-1-0.2c-1.2,2-2.2,4.3-3.7,6
	c-3.2,3.6-3.8,7.4-3,12.1c2.9,18.2,2.7,36.6-3.1,54.1c-2.4,7.3-1.7,12.7,0.4,19.6c7.6,24.7,8.6,49.8,2.2,75
	c-0.4,1.8-0.2,3.9,0.4,5.7c1.7,5.9,4.1,11.5,5.6,17.4c3.1,12,2,24-0.2,36c-1.3,6.9-1.8,14-2.6,21c0.3,0.1,0.6,0.2,0.8,0.3
	c2.3-4.1,4.4-8.2,6.9-12.2c4.5-7.3,9.1-14.6,13.8-21.8c1.9-3,4.9-5,8.3-3.3c3.2,1.5,2.2,5,1.6,7.7c-2.3,9.9-7.2,17.4-17.9,19.9
	c-1.8,0.4-3.2,2.2-4.8,3.4c1.4,1.3,2.2,1.6,3.1,1.7c7.9,1.1,17.4-4.8,21.2-13.7c2.3-5.4,3.8-11.1,5.7-16.6c0.9-2.7,0.4-4.2-2.4-5.6
	c-1.8-0.9-3.5-2.9-4.4-4.9c-2.2-5-4.5-10.1-5.8-15.3c-5.9-22.8-7.8-46.2-10.4-69.5c-1.5-13.5-3.1-27-5.3-40.5
	c-3.2-19.4-4.6-38.9-4.4-58.6C481.1,58.6,480.6,52.7,480.4,46.8z M554.6,305.8c0.5-0.2,1-0.4,1.5-0.6c-0.3-1.7-0.7-3.3-1-5
	c-0.9-5.2-2.2-10.3-2.6-15.5c-1.4-18.8-2.4-37.5,0.1-56.3c1.4-10.9,2.5-21.8,6.4-32.2c0.5-1.4,0.1-3.3-0.4-4.8
	c-1.4-4.3-3.5-8.3-4.4-12.7c-2.9-13.8-2-27.8-0.7-41.8c0.8-8.7,2.2-17.3,6.2-25.3c0.4-0.7,0.3-2.1-0.1-2.7c-5.1-8-6.1-17.3-8-26.3
	c-2.6-12.6-0.6-25.1,1.7-37.5c0.1-0.7,0.4-1.6,0-2.1c-2.3-3.4-4.8-6.7-7.3-10.1c-0.7,1.7-0.7,3.1-0.7,4.6c0.2,20,1.1,39.9,0.6,59.9
	c-0.6,20.8-2.4,41.6-3.9,62.4c-0.7,10.5-1.4,20.9-2.8,31.3c-2.1,15.5-4.7,30.9-11.2,45.3c-2.3,5.2-4.9,10.3-7.5,15.9
	c1.2,0,1.9,0.1,2.6,0c4.9-0.7,8.7,1.2,11.1,5.3c2,3.3,3.6,6.9,5,10.4c4.2,10.7,8.1,21.5,12.3,32.2
	C552.5,302.1,553.7,303.9,554.6,305.8z M473.1,305c4.5,1,8,2.1,11.7,2.7c10.5,1.7,20.8,1.7,29.6-5.4c2.5-2,3.7-5.7,5.1-8.8
	c0.4-0.8-0.6-2.9-1.6-3.5c-3.8-2.7-4.6-4.8-3-9.7c7.4-0.5,7.4-0.5,5.9-8.2c-0.3-1.7-0.6-3.5-1.1-5.1c-0.4-1.2-1.1-2.3-1.6-3.4
	c-1.1,1.7-1.4,3.3-1.7,4.9c-2.7,14-15,26.8-32,24.2c-1.1-0.2-2.9,0-3.4,0.7C478.3,296.8,476,300.6,473.1,305z M545.7,297.5
	c-0.4-1.3-0.7-2.4-1.1-3.5c-2.6-7-5.1-14.1-7.7-21.1c-1.5-4.1-2.9-8.2-4.8-12.2c-1.8-3.9-5.7-5.4-9.4-4.1c-1.9,0.6-2.5,1.6-2,3.7
	c1.4,5.8,2.7,11.7,4,17.5c0.2,0.9,0.7,2.4,1.3,2.5c4,0.8,4.9,4.4,6.6,7.2C535.6,292.3,538,297.7,545.7,297.5z M443.7,224
	c-6.2-3.8-12.5-2.6-18.8-2c-4.4,0.4-8.8,1.1-13.2,1.5c-3,0.2-6,0-9,0c3,3.7,6.9,4.1,10.6,3.8c9.8-0.7,19.5-1.7,29.3-2.6
	C442.9,224.7,443.1,224.5,443.7,224z M152.4,150.6c-3.4-0.4-6.3-1.1-9.2-0.9c-1.1,0-2.5,1.7-3,3c-0.3,0.7,0.8,2.4,1.7,3
	C146,158.1,149.9,156.4,152.4,150.6z M444.7,221.5c1-1.8,2-2.9,1.9-3.9c-0.1-0.8-1.5-1.5-2.3-2.3c-0.8,1-2,1.9-2.2,2.9
	C442.1,219,443.5,220,444.7,221.5z"/>
</svg>
