<?xml version="1.0" encoding="utf-8"?>
<!-- Generator: Adobe Illustrator 16.0.0, SVG Export Plug-In . SVG Version: 6.00 Build 0)  -->
<!DOCTYPE svg PUBLIC "-//W3C//DTD SVG 1.1//EN" "http://www.w3.org/Graphics/SVG/1.1/DTD/svg11.dtd">
<svg version="1.1" id="Layer_1" xmlns="http://www.w3.org/2000/svg" xmlns:xlink="http://www.w3.org/1999/xlink" x="0px" y="0px"
	 width="478px" height="481.6px" viewBox="0 0 478 481.6" enable-background="new 0 0 478 481.6" xml:space="preserve">
<g>
	<g>
		<g>
			<path fill="#FFFFFF" d="M42.6,187.3c22.8-2.5,43.9-11.7,59.7-28.5c8.7-9.2,14.7-20.3,21.4-31c3.7-5.9,7.7-11.5,12.6-16.5
				c5.3-5.5,11-10.6,16.4-15.9c-1.9,0-3.8,0-5.7,0c12.6,14.2,25.2,28.4,37.8,42.6c0-1.9,0-3.8,0-5.7c-1.7,2.1-3.4,4.1-5.1,6.2
				c-1.1,1.3-1.7,3.3-0.6,4.8c9,12.5,18,24.9,27.7,36.9c9.1,11.3,18.4,22.4,28,33.3c19.1,21.7,39.2,42.4,60.2,62.2
				c18.7,17.6,38.3,34.4,58.6,50.2c10.4,8.1,20.9,15.9,31.6,23.5c2.3,1.7,4.8,4,7.5,5c1.5,0.6,2.5,0.6,2.7,2.3
				c0.3,2.8-0.1,5.7-0.1,8.5c0,3.9,0.1,7.7,0.1,11.6c1-1.3,2-2.6,2.9-3.9c-7.6,2.6-15.2,5.2-22.8,7.9c-3.6,1.3-7.2,2.5-10.8,3.8
				c-3.1,1.1-5-2.6-6.9-4.7c-11-12-22-23.9-33.1-35.8c-22.2-23.8-44.5-47.5-67.1-70.9c-17.4-18-35-35.9-52.8-53.5
				c-8.5-8.4-17.3-16.4-25.9-24.6c-7.7-7.2-15.3-14.2-25.4-17.8c-1.8-0.6-3.5,0.5-4.5,1.8c-15.7,20.6-24.3,46.5-28.2,71.9
				c1.3-1,2.6-2,3.9-2.9c-2-0.1-4.1-1-6-1.6c-2.6-0.8-5.1-1.6-7.6-2.5c-4.7-1.7-9.4-3.5-13.9-5.6c-8.8-4-17.3-8.7-25.2-14.4
				c-6.4-4.6-12.3-10.2-16.9-16.6c-2.3-3.2-4.3-6.8-5.8-10.4c-0.9-2.1-1.5-4.2-2.2-6.4c-0.7-2.4-0.4-5-0.4-7.5c0-5.2-8-5.2-8,0
				c0,2.7-0.3,5.5,0.3,8.1c0.5,2.2,1.2,4.4,2,6.5c1.6,4.4,3.7,8.6,6.3,12.5c5,7.6,11.6,13.9,18.8,19.4c8.3,6.3,17.5,11.4,26.9,15.7
				c5.2,2.4,10.5,4.5,15.8,6.4c5,1.8,10.5,4.1,15.8,4.4c1.6,0.1,3.6-1.3,3.9-2.9c3.8-24.8,12.1-49.8,27.4-70c-1.5,0.6-3,1.2-4.5,1.8
				c6.1,2.2,11.3,6.1,16.1,10.4c5.3,4.7,10.5,9.6,15.7,14.5c11.9,11.1,23.3,22.6,34.7,34.1c22.9,23.1,45.5,46.5,67.9,70.1
				c17.7,18.7,35.2,37.5,52.6,56.4c4.2,4.5,8.4,9.1,12.6,13.6c3.6,3.9,7.4,9.5,13.5,8.7c3-0.4,6-1.8,8.9-2.8c3-1.1,6-2.1,9.1-3.1
				c6.1-2.1,12.2-4.2,18.3-6.3c1.7-0.6,2.9-2,2.9-3.9c0-3.9-0.1-7.7-0.1-11.6c0-3.4,0.5-6.8-0.1-10.1c-0.4-2.6-1.7-4.9-3.9-6.5
				c-1.2-0.8-2.5-1.4-3.9-1.7c0.9,0.3-0.9-0.8-1.1-0.9c-0.9-0.7-1.9-1.3-2.9-2c-11.9-8.3-23.5-17-34.9-25.9
				c-22.7-17.9-44.5-36.9-65.2-57c-18.9-18.3-37-37.4-54.2-57.2c-8.8-10.1-17.3-20.3-25.7-30.7c-8.9-11-17.1-22.4-25.4-33.9
				c-0.2,1.6-0.4,3.2-0.6,4.8c1.7-2.1,3.4-4.1,5.1-6.2c1.5-1.8,1.6-3.9,0-5.7c-12.6-14.2-25.2-28.4-37.8-42.6
				c-1.5-1.7-4.2-1.4-5.7,0c-5.3,5.1-10.7,10-15.8,15.2c-4.8,4.8-8.9,10.2-12.6,15.8c-6.7,10.1-12.1,21-20.1,30.2
				c-14.4,16.4-34.4,25.9-56,28.3c-2.2,0.2-4,1.6-4,4C38.6,185.3,40.4,187.5,42.6,187.3z"/>
		</g>
	</g>
	
		<circle fill-rule="evenodd" clip-rule="evenodd" fill="none" stroke="#FFFFFF" stroke-width="11" stroke-miterlimit="10" cx="239" cy="240.8" r="231"/>
</g>
</svg>
