<?xml version="1.0" encoding="utf-8"?>
<!-- Generator: Adobe Illustrator 16.0.0, SVG Export Plug-In . SVG Version: 6.00 Build 0)  -->
<!DOCTYPE svg PUBLIC "-//W3C//DTD SVG 1.1//EN" "http://www.w3.org/Graphics/SVG/1.1/DTD/svg11.dtd">
<svg version="1.1" id="Layer_1" xmlns="http://www.w3.org/2000/svg" xmlns:xlink="http://www.w3.org/1999/xlink" x="0px" y="0px"
	 width="478px" height="481.6px" viewBox="0 0 478 481.6" enable-background="new 0 0 478 481.6" xml:space="preserve">
<g>
	<g>
		<g>
			<g>
				<path fill="#FFFFFF" d="M170.3,364.2c-2.3,5.2-5.3,10.7-4.9,16.6c2.3-0.9,4.6-1.9,6.8-2.8c-11.7-11.5-16-27.8-22.6-42.3
					c-1.6-3.6-7.7-1.8-7.5,2c0.5,7.5-4.9,14.6-3,22.2c2.2-1.3,4.5-2.6,6.7-3.9c-15.7-14.1-18-36.6-19.5-56.4
					c-0.4-4.5-6.3-5.4-7.9-1.1c-2.8,8-5.9,16.1-6.7,24.6c2.5-0.7,5-1.3,7.5-2c-4.6-6-5.1-14.1-6.2-21.2c-1.2-7.6-1.6-15.4-3.2-23
					c-3.3-15-12.1-27.5-19.6-40.6c-3.7-6.5-7-13.3-9.2-20.5c-2-6.6-2.7-13.5-3.2-20.4c-0.5-7-0.7-13.9-1.5-20.8
					c-0.9-8.2-1.2-16.4-0.9-24.6c0.1-3.5,0.4-6.9,0.8-10.4c-2.7,0-5.3,0-8,0c1.9,14.5,10.2,27.2,18.8,38.6c2.2,2.9,4.5,5.8,6.8,8.7
					c1.1,1.4,2.2,2.8,3.5,4c1.5,1.4,3.4,2.4,5.1,3.6c5.9,4.1,11.6,8.6,17,13.4c5.4,4.8,10.5,10.1,15,15.7c2.1,2.6,3.9,5.4,5.5,8.3
					c1.6,2.9,2.3,6.5,4.3,9.1c2,2.6,5,3.6,7.9,4.9c3.5,1.6,6.9,3.3,10.2,5.1c6.4,3.5,12.6,7.6,17.8,12.8c2.4,2.4,3.8,5,5.5,8
					c1.6,2.9,3.9,5.4,7,6.5c6.4,2.4,12.7-1.5,17.3-5.7c5.1-4.7,9.1-10.7,12.9-16.4c1.5-2.3,3.5-5,6.5-5c2.3,0,5.1,2.6,6.5,4.2
					c1.5,1.7,4.1,1.4,5.7,0c2.3-2,4.4-4.3,7.6-4.2c2.8,0.1,4.9,4,6.2,6c4,6.1,8.3,12.2,14,16.9c5.3,4.4,12.9,7.2,18.9,2.3
					c2.8-2.3,3.9-5.3,5.7-8.4c1.7-3.1,4.4-5.4,7-7.7c5.5-4.7,12-8.3,18.4-11.5c3.4-1.7,6.8-3.3,10.2-4.9c1.7-0.8,2.9-1.6,4.1-3.1
					c1.1-1.4,1.4-3.9,2.1-5.6c5.8-13,17.2-23.5,28-32.4c5-4.1,10.5-7.6,15.6-11.6c2.6-2,4.5-4.6,6.5-7.2c2.1-2.6,4.1-5.3,6.1-7.9
					c3.9-5.3,7.5-10.8,10.6-16.7c1.6-2.9,3-5.9,4.2-9c1.2-3.2,1.7-6.4,2.5-9.7c-2.6-0.4-5.2-0.7-7.9-1.1c3,29.2,1,60.9-11.8,87.7
					c-3.2,6.8-6.8,13.6-9.6,20.6c-1.3,3.4-2.4,6.8-3.9,10.1c-1.6,3.7-3.4,7.2-4.8,11c-2.3,6.8-2.9,14.1-4,21.2
					c-1.1,7-1.9,14.2-3.5,21.1c-0.6,2.6-1.6,5.8-3.3,7.9c2.3,0.9,4.6,1.9,6.8,2.8c-0.9-8.5-5.3-16-8.1-23.9
					c-1.5-4.3-7.5-3.5-7.9,1.1c-1.6,19.8-4.4,41.9-20.1,55.9c2.2,1.3,4.5,2.6,6.7,3.9c1.9-7.4-3-14.4-2.5-21.7
					c0.3-3.9-5.8-5.6-7.5-2c-6.8,14.7-14.9,28.8-26.6,40.2c2.2,1.3,4.5,2.6,6.7,3.9c0.8-4.6,0.6-8.9,0-13.5
					c-0.4-3.3-4.1-5.5-6.8-2.8c-4.4,4.3-8.4,9.1-12.2,14c-3.8,4.8-7.3,9.6-12.1,13.5c-2.1,1.7-4.3,3.3-6.9,4.1
					c-3.1,0.9-6.5,0.8-9.7,1.3c-5.3,0.7-11.4,0.9-15.3,5c1.9,0,3.8,0,5.7,0c-3.7-3.4-6.8-6.3-12.1-6.5c-5.2-0.2-8.7,3.2-12.1,6.5
					c1.9,0,3.8,0,5.7,0c-4.3-4.1-10.2-4.4-15.8-5c-3-0.3-6.1-0.4-9-1.1c-2.7-0.6-5.3-2.6-7.4-4.3c-4.7-3.8-8.2-8.7-11.9-13.4
					c-3.8-4.8-8.1-9.2-11.9-14c-1.3-1.7-4.3-1.4-5.7,0c-1.7,1.7-1.3,3.9,0,5.7c3.6,4.6,7.7,8.7,11.3,13.3c3.8,4.7,7.2,9.6,11.8,13.6
					c4.8,4.1,9.7,6.8,16,7.6c3.1,0.4,6.3,0.6,9.4,1c2.5,0.3,5.5,0.5,7.3,2.4c1.6,1.5,4.1,1.5,5.7,0c1.9-1.9,3.6-4.1,6.5-4.2
					c2.7-0.1,4.6,2.5,6.4,4.2c1.6,1.4,4.1,1.6,5.7,0c1.4-1.5,3.2-1.6,5.2-1.9c3.4-0.6,6.8-1.1,10.2-1.4c2.9-0.3,5.7-0.6,8.4-1.7
					c3-1.2,5.6-3.3,8.1-5.3c4.8-3.8,8.3-8.7,12.1-13.5c3.8-4.9,7.8-9.6,12.2-14c-2.3-0.9-4.6-1.9-6.8-2.8c0.5,3.8,0.9,7.6,0.2,11.4
					c-0.7,3.8,3.7,6.9,6.7,3.9c12.1-11.9,20.8-26.5,27.8-41.9c-2.5-0.7-5-1.3-7.5-2c-0.2,3.4,0.7,6.9,1.5,10.1
					c0.7,2.9,2,6.7,1.2,9.5c-1,4,3.7,6.5,6.7,3.9c17.3-15.5,20.6-39.6,22.4-61.6c-2.6,0.4-5.2,0.7-7.9,1.1c2.5,7.1,7,14.2,7.8,21.8
					c0.3,3,4.4,5.9,6.8,2.8c4.5-5.7,5.6-12.7,6.8-19.6c1.2-7.1,2.3-14.2,3.4-21.3c1.1-7.5,3-14.1,6.3-21c1.6-3.4,2.8-6.9,4.1-10.4
					c1.4-3.8,3.1-7.2,4.9-10.8c6.7-13.3,12.3-27.2,15.2-41.9c3-14.7,3.7-29.7,3.4-44.6c-0.1-5.3-0.4-10.5-0.9-15.8
					c-0.4-4.2-6.8-5.8-7.9-1.1c-1.2,5.1-2.3,9.7-4.6,14.4c-2.4,4.8-5.2,9.4-8.2,13.9c-3,4.4-6.2,8.7-9.6,12.9
					c-1.7,2.1-3.3,4-5.4,5.8c-2,1.7-4.3,3-6.4,4.5c-8.6,6.2-16.8,13.1-24.1,20.9c-3.6,3.8-6.9,7.8-9.8,12.1
					c-1.4,2.1-2.7,4.3-3.9,6.5c-0.7,1.3-1.3,2.7-1.8,4c-0.4,1.1-0.7,2.6-1.4,3.6c0.5-0.5,1-1,1.4-1.4c-4.4,2.8-9.6,4.5-14.2,6.9
					c-4.7,2.4-9.2,5-13.4,8.1c-4.2,3-8.3,6.3-11.4,10.5c-1.5,2-2.5,4.1-3.6,6.4c-0.8,1.9-2.5,3.4-4.6,3.4c-4.1,0-8.1-4.7-10.6-7.4
					c-3.5-3.8-6.2-8.3-9.2-12.5c-2.9-4.3-6.5-7.3-11.7-7.9c-5.3-0.6-9.7,3.3-13.3,6.5c1.9,0,3.8,0,5.7,0c-4.3-4.9-11.4-8.5-17.7-5.3
					c-6.4,3.2-9.6,10.9-13.8,16.3c-2.9,3.8-8.9,11.7-14.6,10.2c-2.4-0.7-3.8-4.7-4.8-6.7c-1.7-3.3-4.6-6-7.3-8.5
					c-5.4-5-11.9-9-18.4-12.4c-3.1-1.7-6.3-3.2-9.5-4.7c-1.5-0.7-3-1.2-4.4-2c-0.9-0.5-1.2-2.4-1.6-3.2c-5.4-13.3-16.3-24.2-27-33.5
					c-4.9-4.2-10-8.1-15.3-11.8c-1.2-0.8-2.4-1.7-3.6-2.5c-1.4-1-2.4-2.3-3.5-3.7c-2.3-2.8-4.5-5.6-6.7-8.5
					c-3.9-5.2-7.4-10.6-10.6-16.2c-3.1-5.5-5.7-11.4-6.5-17.7c-0.7-5.1-7.4-5.2-8,0c-0.9,8-1.1,16.1-0.8,24.1
					c0.3,7.5,1.3,14.9,1.8,22.3c0.4,7.2,0.8,14.3,1.8,21.4c1,7.1,3.2,13.6,6,20.3c6,14.2,16.1,26.3,21.7,40.6c2.7,6.8,4,13.8,4.8,21
					c0.8,8,2,16,3.6,23.9c0.9,4.2,2.5,8.5,5.1,11.9c2.4,3.2,7.1,2.1,7.5-2c0.7-7.7,3.8-15.3,6.4-22.5c-2.6-0.4-5.2-0.7-7.9-1.1
					c1.7,21.9,4.5,46.4,21.9,62c2.9,2.6,7.7,0.1,6.7-3.9c-0.6-2.5,0.6-6.3,1.3-9c0.9-3.5,2.2-7.4,1.9-11.1c-2.5,0.7-5,1.3-7.5,2
					c6.9,15.3,11.6,31.8,23.8,43.9c2.4,2.3,7.1,0.8,6.8-2.8c-0.3-4.4,2.1-8.6,3.8-12.5c0.9-2,0.6-4.3-1.4-5.5
					C174.1,361.7,171.2,362.2,170.3,364.2z"/>
			</g>
		</g>
		<g>
			<g>
				<path fill="#FFFFFF" d="M241.6,175.2c3.9-3.4,7.6-6.6,12.3-9.1c4.2-2.2,8.8-3.4,13.5-3.8c10.1-0.7,20,3,28.5,8.3
					c8.8,5.5,16.6,14.8,27.3,16.4c5.7,0.8,10.9-1,15.6-4.1c2.2-1.4,4.2-3.1,6.2-4.9c1.8-1.6,3.4-4.1,5.4-5.5c-2-1.5-3.9-3-5.9-4.5
					c-1.7,8.8-5.8,17-12.1,23.4c-6.9,7.1-16.3,11.2-25.9,13.2c-11.3,2.4-23.5,1.6-34.7-1.3c-5.5-1.4-10.7-3.6-15.8-6.2
					c-5.4-2.8-9.8-6.3-14.3-10.3c-1.7-1.5-4-1.5-5.7,0c-16.8,15.5-40.9,22-63.4,18c-10.1-1.8-19.8-6.2-27.1-13.5
					c-3.1-3.1-5.6-6.7-7.7-10.6c-1-2-1.9-4-2.6-6.1c-0.6-1.8-1.6-4.8-1.7-6.1c-2.3,0.9-4.6,1.9-6.8,2.8c6.9,7.5,15.4,16.4,26.6,15.5
					c11.1-0.9,19.8-10.8,28.7-16.5c8.6-5.6,18.6-8.9,28.9-8.2c9.7,0.6,18.4,5.9,25,12.8c3.6,3.8,9.2-1.9,5.7-5.7
					c-6.8-7.1-15.4-12.5-25.1-14.4c-10.4-2.1-20.9,0-30.5,4.3c-10.2,4.5-17.9,12.6-27.5,18c-10.5,5.9-19.5-4.2-26-11.4
					c-2.2-2.4-7.2-0.7-6.8,2.8c1,10,6.6,20.2,13.4,27.4c8,8.6,19.3,14,30.7,16.3c25.4,5.2,53-2.3,72-19.9c-1.9,0-3.8,0-5.7,0
					c4.8,4.2,9.5,8,15.1,11.1c5.6,3,11.5,5.4,17.6,7.2c12.8,3.7,26.7,4.2,39.7,1.5c10.7-2.2,21-7.2,28.9-14.8
					c7.5-7.2,12.6-17.2,14.6-27.4c0.6-3.2-2.7-6.6-5.9-4.5c-2,1.3-3.5,3.2-5.1,4.9c-1.8,1.8-3.6,3.4-5.7,4.9
					c-4.3,3.1-9.3,4.9-14.4,2.6c-4.8-2.1-9.2-5.6-13.3-8.8c-4.3-3.4-8.9-6.5-13.8-9c-9.6-4.8-20.1-7-30.8-5.5
					c-4.9,0.7-9.7,2.5-14,4.8c-4.9,2.6-9,6.3-13.1,9.9C232.1,172.9,237.7,178.5,241.6,175.2z"/>
			</g>
		</g>
	</g>
	
		<circle fill-rule="evenodd" clip-rule="evenodd" fill="none" stroke="#FFFFFF" stroke-width="11" stroke-miterlimit="10" cx="239" cy="240.8" r="231"/>
</g>
</svg>
