<?xml version="1.0" encoding="utf-8"?>
<!-- Generator: Adobe Illustrator 16.0.0, SVG Export Plug-In . SVG Version: 6.00 Build 0)  -->
<!DOCTYPE svg PUBLIC "-//W3C//DTD SVG 1.1//EN" "http://www.w3.org/Graphics/SVG/1.1/DTD/svg11.dtd">
<svg version="1.1" id="Layer_1" xmlns="http://www.w3.org/2000/svg" xmlns:xlink="http://www.w3.org/1999/xlink" x="0px" y="0px"
	 width="5528px" height="3648px" viewBox="0 0 5528 3648" enable-background="new 0 0 5528 3648" xml:space="preserve">
<g opacity="0.9">
	<path fill="#210F02" d="M3466.1,1756.4c-22.4,0-49.3,14.7-51.5,51.1h103.3C3515.8,1771.1,3488.5,1756.4,3466.1,1756.4z"/>
	<path fill="#210F02" d="M1507.2,1758.5c-27,0-57.8,17.2-57.8,63.4c0,46.6,30.8,64.1,57.8,64.1c26.6,0,57.8-17.5,57.8-64.1
		C1564.9,1775.7,1533.8,1758.5,1507.2,1758.5z"/>
	<path fill="#210F02" d="M818.4,1756.4c-22.4,0-49.4,14.7-51.5,51.1h103.3C868.1,1771.1,840.8,1756.4,818.4,1756.4z"/>
	<path fill="#210F02" d="M-44-48v3744h5616V-48H-44z M398.4,1884.6c27.3,0,45.5-6.7,64.1-16.5c2.1-1.1,4.5-1.4,6.3-1.4
		c8.8,0,14.4,6.7,14,14c-0.4,6.7-3.1,10.2-7.7,12.6c-21.7,12.2-45.5,21.7-79.8,21.7c-69.7,0-122.5-47.6-122.5-125.7
		s52.9-125.7,122.5-125.7c34.3,0,58.1,9.5,79.8,21.7c4.6,2.5,7.4,6,7.7,12.6c0.4,7.4-5.2,14-14,14c-1.8,0-4.2-0.4-6.3-1.4
		c-18.6-9.8-36.8-16.5-64.1-16.5c-62,0-93.8,41.3-93.8,95.2S336.4,1884.6,398.4,1884.6z M688.2,1897.5c0,8.8-7.4,15.8-16.1,15.8
		c-8.8,0-15.8-7-15.8-15.8v-95.9c0-26.6-11.2-42.7-38.5-42.7c-25.2,0-43.4,16.1-57.4,33.6v105c0,8.8-7.4,15.8-16.1,15.8
		c-8.8,0-15.8-7-15.8-15.8v-227.2c0-9.1,7-16.1,15.8-16.1c8.8,0,16.1,7,16.1,16.1v91.4c14.7-16.1,34-32.2,65.1-32.2
		c39.9,0,62.7,31.2,62.7,68.6V1897.5z M885.6,1833.5H766.9c3.5,31.5,23.5,51.8,61.3,51.8c21,0,34.3-4.2,47.3-10.9
		c2.1-1,3.9-1.4,6.3-1.4c7.4,0,14,5.6,14,13.7c0,5.6-4.2,10.2-9.1,13c-15.4,8.8-30.8,15.4-61.3,15.4c-57.1,0-90.7-34-90.7-92.8
		c0-47.3,25.6-92.8,83.7-92.8c53.9,0,83.3,41.7,83.3,88.2C901.7,1826.5,895.4,1833.5,885.6,1833.5z M1032.9,1885.3
		c18.2,0,28-4.9,40.3-11.2c3.2-1.8,4.9-2.1,7.7-2.1c7.4,0,13.3,7.4,13.3,14c0,5.2-2.8,9.5-7,12.3c-11.9,7.7-29.4,16.8-57.1,16.8
		c-49.7,0-93.5-34.3-93.5-92.8c0-58.5,43.8-92.8,93.5-92.8c27.7,0,45.2,9.1,57.1,16.8c4.2,2.8,7,7,7,12.3c0,6.6-6,14-13.3,14
		c-2.8,0-4.5-0.3-7.7-2.1c-12.2-6.3-22.1-11.2-40.3-11.2c-40.6,0-64.4,25.6-64.4,63C968.5,1859.7,992.3,1885.3,1032.9,1885.3z
		 M1274.8,1913.3c-4.9,0-9.8-2.8-13-6.7l-60.2-81.9l-30.5,27.7v45.2c0,8.8-7.4,15.8-16.1,15.8c-8.8,0-15.8-7-15.8-15.8v-227.2
		c0-8.8,7-16.1,15.8-16.1c8.8,0,16.1,7.4,16.1,16.1v143.2l83.3-77c2.8-2.5,6.3-4.6,10.5-4.6c11.9,0,15.4,8.4,15.4,15.4
		c0,2.8-1.1,7-6,11.9l-50.4,45.2l63.4,84c2.1,2.8,3.5,6,3.5,9.5C1290.9,1907.3,1284.2,1913.3,1274.8,1913.3z M1507.2,1915
		c-54.3,0-89.6-37.5-89.6-92.8c0-55.3,35.4-92.8,89.6-92.8c53.9,0,89.6,37.5,89.6,92.8C1596.8,1877.6,1561.1,1915,1507.2,1915z
		 M1802.9,1897.2c0,9.1-7,16.1-15.8,16.1s-16.1-7-16.1-16.1v-14.3c-14.7,16.1-34,32.2-65.1,32.2c-39.9,0-62.7-31.2-62.7-68.6V1747
		c0-8.8,7.4-15.8,16.1-15.8c8.8,0,15.8,7,15.8,15.8v95.9c0,26.6,11.2,42.7,38.5,42.7c25.2,0,43.4-16.1,57.4-33.6v-105
		c0-8.8,7.4-15.8,16.1-15.8s15.8,7,15.8,15.8V1897.2z M1953.4,1908.7c-8.4,3.8-17.9,6.3-29.1,6.3c-16.5,0-51.1-2.8-51.1-46.2v-108.5
		h-24.9c-3.9,0-6.6-2.8-6.6-6.7c0-2.1,1-4.2,3.1-6l47.6-46.6c1-1,3.1-3.2,6-3.2c3.8,0,6.6,3.2,6.6,7v28h39.6
		c7.7,0,13.6,5.9,13.6,13.7c0,7.7-5.9,13.7-13.6,13.7h-39.6V1866c0,20.7,14,21,22.8,21c11.2,0,15.1-3.2,21-3.2
		c6.3,0,12.6,5.2,12.6,12.6C1961.5,1902.4,1958.3,1906.3,1953.4,1908.7z M2361.9,1897.5c0,8.8-7.4,15.8-16.1,15.8
		c-8.8,0-15.8-7-15.8-15.8V1803c0-29.4-9.1-44.1-35.7-44.1s-41,17.8-50.4,33.6v105c0,8.8-7.4,15.8-16.1,15.8
		c-8.8,0-15.8-7-15.8-15.8V1803c0-29.4-9.1-44.1-35.7-44.1s-41,17.8-50.4,33.6v105c0,8.8-7.4,15.8-16.1,15.8
		c-8.8,0-15.8-7-15.8-15.8v-150.2c0-8.8,7-16.1,15.8-16.1c8.8,0,16.1,7.3,16.1,16.1v14.4c9.8-13.6,26.3-32.2,59.5-32.2
		c28,0,46.2,17.8,53.6,36.1c8-13.3,25.9-36.1,64.4-36.1c41.3,0,58.5,36.1,58.5,67.2V1897.5z M2566.6,1753.3l-95.6,229.6
		c-2.8,6.3-7.3,10.8-14.7,10.8c-8.4,0-15.1-7-15.1-15.4c0-1.8,0.3-3.9,1.1-5.6l22.8-58.5l-65.8-160.3c-0.7-1.8-1.4-4.2-1.4-6.7
		c0-8.8,7-16.1,15.8-16.1c6.6,0,12.3,4.2,14.7,9.8l53.9,133.7l55-133c2.8-6.3,7.7-10.5,14.7-10.5c8.8,0,15.8,7.3,15.8,16.1
		C2567.7,1749.4,2567.3,1751.5,2566.6,1753.3z M2837.2,1913.3c-4.9,0-9.8-2.8-12.9-6.7l-60.2-81.9l-30.5,27.7v45.2
		c0,8.8-7.3,15.8-16.1,15.8s-15.8-7-15.8-15.8v-227.2c0-8.8,7-16.1,15.8-16.1s16.1,7.4,16.1,16.1v143.2l83.3-77
		c2.8-2.5,6.3-4.6,10.5-4.6c11.9,0,15.4,8.4,15.4,15.4c0,2.8-1.1,7-6,11.9l-50.4,45.2l63.4,84c2.1,2.8,3.5,6,3.5,9.5
		C2853.3,1907.3,2846.6,1913.3,2837.2,1913.3z M3055.9,1897.5c0,8.8-7.3,15.8-16.1,15.8s-15.8-7-15.8-15.8v-95.9
		c0-26.6-11.2-42.7-38.5-42.7c-25.2,0-43.4,16.1-57.4,33.6v105c0,8.8-7.3,15.8-16.1,15.8c-8.8,0-15.8-7-15.8-15.8v-150.2
		c0-9.1,7-16.1,15.8-16.1c8.8,0,16.1,7,16.1,16.1v14.4c14.7-16.1,33.9-32.2,65.1-32.2c39.9,0,62.7,31.2,62.7,68.6V1897.5z
		 M3146.2,1897.5c0,8.8-7,15.8-16.1,15.8c-8.8,0-15.8-7-15.8-15.8v-150.2c0-9.1,7-16.1,15.8-16.1c9.1,0,16.1,7,16.1,16.1V1897.5z
		 M3149.3,1678.7c0,9.8-8.1,17.9-17.8,17.9c-0.4,0-0.7,0-2.1,0c-9.8,0-17.8-8.1-17.8-17.9c0-0.4,0-0.4,0-1.4
		c0-9.8,8.1-17.9,17.8-17.9c0.7,0,1.4,0,2.1,0c9.8,0,17.8,8.1,17.8,17.9C3149.3,1677.7,3149.3,1678.4,3149.3,1678.7z M3353.4,1754.7
		l-60.9,145.6c-3.2,7-10.5,13-19.2,13h-3.5c-8.8,0-16.1-6-19.2-13l-60.9-145.6c-1.1-2.5-1.8-4.5-1.8-7.4c0-8.8,7-16.1,15.8-16.1
		c6.3,0,12.2,3.8,14.3,9.1l53.6,135.8l53.6-135.8c2.1-5.2,8.1-9.1,14.3-9.1c8.8,0,15.8,7.3,15.8,16.1
		C3355.1,1750.1,3354.4,1752.2,3353.4,1754.7z M3533.3,1833.5h-118.7c3.5,31.5,23.5,51.8,61.3,51.8c21,0,34.3-4.2,47.2-10.9
		c2.1-1,3.9-1.4,6.3-1.4c7.3,0,14,5.6,14,13.7c0,5.6-4.2,10.2-9.1,13c-15.4,8.8-30.8,15.4-61.3,15.4c-57.1,0-90.7-34-90.7-92.8
		c0-47.3,25.6-92.8,83.7-92.8c53.9,0,83.3,41.7,83.3,88.2C3549.4,1826.5,3543.1,1833.5,3533.3,1833.5z M3654.7,1915
		c-25.5,0-45.8-6-63.7-15.8c-3.5-2.5-5.9-6.7-5.9-11.6c0-7,5.6-14,13.7-14c2.1,0,3.8,0.4,6.3,1.4c12.6,5.6,26.9,10.5,47.6,10.5
		c27,0,38.9-9.1,38.9-24.9c0-30.1-105-12.2-105-76c0-31.5,22.8-55.3,68.2-55.3c19.3,0,36.4,3.5,50.8,8.8c6.7,2.1,10.2,8,10.2,13.3
		c0,7.3-6,14-14,14c-1.8,0-3.2-0.4-4.6-0.7c-11.2-3.5-24.5-6.3-39.9-6.3c-25.9,0-40.3,10.5-40.3,24.5c0,36.4,105.4,11.6,105.4,80.2
		C3722.3,1891.6,3699.5,1915,3654.7,1915z M3806.6,1893c0,10.9-8.8,19.6-19.6,19.6h-3.5c-10.9,0-19.6-8.8-19.6-19.6v-2.1
		c0-10.9,8.8-19.6,19.6-19.6h3.5c10.8,0,19.6,8.8,19.6,19.6V1893z"/>
</g>
</svg>
