<?xml version="1.0" encoding="utf-8"?>
<!-- Generator: Adobe Illustrator 16.0.0, SVG Export Plug-In . SVG Version: 6.00 Build 0)  -->
<!DOCTYPE svg PUBLIC "-//W3C//DTD SVG 1.1//EN" "http://www.w3.org/Graphics/SVG/1.1/DTD/svg11.dtd">
<svg version="1.1" id="Layer_1" xmlns="http://www.w3.org/2000/svg" xmlns:xlink="http://www.w3.org/1999/xlink" x="0px" y="0px"
	 width="477.5px" height="477.5px" viewBox="0 0 477.5 477.5" enable-background="new 0 0 477.5 477.5" xml:space="preserve">
<path fill-rule="evenodd" clip-rule="evenodd" fill="#E5D3BD" d="M223.5,477.5c-9.2-1.3-18.4-2.3-27.6-4
	c-54.2-10-99.6-35.6-136.1-76.7C25.4,358.2,5.3,312.8,1,261.3C-5.6,182,20.6,114.8,79.3,61C117.8,25.7,163.8,5.5,215.8,1
	C290.9-5.4,355.7,18.1,409,71.6c39.2,39.4,61,87.5,67.3,142.6c0.4,3.1,0.8,6.2,1.2,9.3c0,10,0,20,0,30c-0.3,1.3-0.7,2.6-0.8,3.9
	c-2.7,37-13.4,71.6-32.7,103.1C406.3,422.1,352,460,281,473.6c-9.1,1.7-18.4,2.7-27.6,3.9C243.5,477.5,233.5,477.5,223.5,477.5z
	 M31.7,238.5c-0.3,113.4,92.9,206.8,206.6,207.1C351.8,445.8,445,353,445.4,239.2C445.9,125.5,352.7,32,238.7,31.8
	C125.4,31.6,32,124.8,31.7,238.5z"/>
<path fill-rule="evenodd" clip-rule="evenodd" fill="#E5D3BD" d="M237.4,280.1c2.1-2.6,3.1-4.2,4.4-5.5
	c28.8-28.9,57.7-57.7,86.5-86.6c4.8-4.8,10.1-7.6,17-5.7c11.2,3,15.6,15.9,8.6,25.1c-1.1,1.4-2.4,2.7-3.7,4
	c-33,33-65.9,66-98.9,98.9c-9.5,9.5-18,9.5-27.5,0c-33.2-33.2-66.4-66.4-99.7-99.6c-4.6-4.6-7.5-9.7-5.9-16.5
	c2.8-11.7,16.2-16.3,25.6-8.8c1.6,1.2,2.9,2.7,4.4,4.1c28.4,28.4,56.8,56.8,85.1,85.2C234.4,275.9,235.4,277.5,237.4,280.1z"/>
</svg>
