<?xml version="1.0" encoding="utf-8"?>
<!-- Generator: Adobe Illustrator 16.0.0, SVG Export Plug-In . SVG Version: 6.00 Build 0)  -->
<!DOCTYPE svg PUBLIC "-//W3C//DTD SVG 1.1//EN" "http://www.w3.org/Graphics/SVG/1.1/DTD/svg11.dtd">
<svg version="1.1" id="Layer_1" xmlns="http://www.w3.org/2000/svg" xmlns:xlink="http://www.w3.org/1999/xlink" x="0px" y="0px"
	 width="478px" height="481.6px" viewBox="0 0 478 481.6" enable-background="new 0 0 478 481.6" xml:space="preserve">
<path fill-rule="evenodd" clip-rule="evenodd" fill="#FFFFFF" d="M328.6,292.7h-1.7c0.1-3.3-0.1-6.8-0.1-9.9c0-16.4,0-32.9,0-49.3
	c0-33.1,0-66.3,0-99.4c0-13.3,0-26.6,0-39.9c0-5.5,0.7-11.4-1.7-16.5c-2.1-4.6-6-7.9-10.7-9.5c-0.3-0.1-0.5-0.2-0.9-0.3
	c-6.4-1.6-12.7,0.2-17.5,4.7c-2.5,2.4-4.1,5.7-5.9,8.7c-2.2,3.7-4.5,7.3-6.7,11c-8.6,14.1-17.2,28.2-25.8,42.3
	c-6.4,10.5-12.8,20.9-19.2,31.4c-3.5-5.8-7.1-11.6-10.6-17.4c-8.6-14-17.2-28.1-25.7-42.1c-4.3-7-8.5-14-12.8-21
	c-3.6-5.9-6.6-12.8-12.7-16.6c-5.5-3.5-12.6-3.2-18.1-0.1c-5.6,3.1-8.8,9.3-9,15.6c-0.4,16.4,0,32.9,0,49.3c0,33.1,0,66.2,0,99.3
	c0,16.6,0,33.3,0,49.9c0,3.3-0.2,6.8,0,10.1h-0.1c-8.8,0-16,7.2-16,16v36c0,8.8,7.2,16,16,16h36c8.8,0,16-7.2,16-16v-14h18
	c0,23.6,0,47.2,0,70.8c0,3.4,0,6.8,0,10.2c0,5.2,8,5.2,8,0c0-5.6,0-11.2,0-16.7c9.7-3.6,19.4-7.3,29.2-10.9c1.7-0.6,2.9-2,2.9-3.9
	c0-16.5,0-33,0-49.5h17v14c0,8.8,7.2,16,16,16h36c8.8,0,16-7.2,16-16v-36C344.6,299.8,337.4,292.7,328.6,292.7z M259.3,146.8
	c8.6-14.1,17.2-28.2,25.8-42.3c4.3-7,8.6-14.1,12.9-21.1c1.6-2.6,2.9-5.2,5.6-6.9c2.3-1.5,5.1-1.8,7.8-1.1c2.4,0.7,4.4,2.2,5.8,4.3
	c1.7,2.6,1.6,5.4,1.6,8.3c0,8.3,0,16.6,0,24.9c0,16.6,0,33.2,0,49.8c0,33.1,0,66.1,0,99.2c0,8.2,0,16.4,0,24.6c0,2,0.1,4,0,6h-20
	c0-4,0-8.1,0-12.1c0-0.2,0-0.4,0-0.7c0-15.3,0,0,0-15.3c0-27.8,0-55.7,0-83.5c0-15.4,0-30.8,0-46.2c0-4-5.4-5.4-7.5-2
	c-12.2,19.9-24.3,39.8-36.5,59.7c-3.9-6.4-7.8-12.8-11.7-19.2C248.5,164.6,253.9,155.7,259.3,146.8z M291.7,148.1
	c0,28.1,0,56.2,0,84.3c0,6.7,0,13.3,0,20c-6.8-11.2-13.6-22.3-20.4-33.5c-3.8-6.2-7.6-12.5-11.4-18.7
	C270.5,182.9,281.1,165.5,291.7,148.1z M193.4,344.7c0,4.4-3.6,8-8,8h-36c-4.4,0-8-3.6-8-8v-36c0-4.4,3.6-8,8-8h36c4.4,0,8,3.6,8,8
	V344.7z M192.6,294.4c-2.1-1.1-4.6-1.7-7.1-1.7c0.2-3.7-0.1-7.4-0.1-10.9c0-4.7,0-9.3,0-14c7.4-12.1,14.8-24.2,22.2-36.3
	c4.8-7.8,9.6-15.7,14.4-23.5c3.9,6.4,7.8,12.8,11.7,19.2C220,249.6,206.3,272,192.6,294.4z M185.4,253c0-6.7,0-13.3,0-20
	c0-28.1,0-56.2,0-84.3c10.6,17.4,21.2,34.8,31.9,52.2c-3.8,6.2-7.6,12.5-11.4,18.7C199.1,230.6,192.3,241.8,185.4,253z M251.6,377.4
	c-8,3-16.1,6-24.1,9c0-16.5,0-33,0-49.6c0-2.1,0-4.1,0-6.2h24.1C251.6,346.2,251.6,361.8,251.6,377.4z M276.6,308.7v14h-75.1v-14
	c0-3.3-1-6.3-2.7-8.9c13.2-21.7,26.4-43.3,39.7-65c13.4,22,26.9,44,40.3,65.9C277.3,303.1,276.6,305.8,276.6,308.7z M283.8,293.8
	c-13.6-22.2-27.1-44.4-40.7-66.6c-1.6-2.6-3.1-5.1-4.7-7.7c-2.1-3.4-4.1-6.8-6.2-10.2c-1.8-3-3.7-6-5.5-9c-1.6-2.6-3.1-5.1-4.7-7.7
	c-12.4-20.2-24.7-40.5-37.1-60.7c-2.1-3.4-7.5-2-7.5,2c0,32.8,0,65.7,0,98.5c0,11,0,22.1,0,33.1c0,5.1,0,10.2,0,15.3
	c0,0.3,0,0.6,0,0.9c0,3.5,0.5,7.3,0,10.9h-20c-0.3-3,0-6.2,0-9.1c0-8.3,0-16.6,0-24.9c0-16.6,0-33.2,0-49.8c0-33,0-66.1,0-99.1
	c0-8.2,0-16.4,0-24.6c0-5.4,3.3-10.5,9.1-11c6.8-0.6,9.7,5.2,12.7,10.1c4.3,7,8.5,14,12.8,21c13.9,22.7,27.8,45.4,41.6,68.2
	c1.6,2.6,3.1,5.1,4.7,7.7c1.7,2.8,3.5,5.7,5.2,8.5c2.2,3.5,4.3,7.1,6.5,10.7c1.6,2.6,3.1,5.1,4.7,7.7c12,19.6,24,39.2,35.9,58.8
	c0,5.6,0,11.2,0,16.8c0,3-0.2,6.2,0,9.2c-2.3,0.3-4.4,1-6.3,2.1C284.2,294.5,284,294.1,283.8,293.8z M336.6,344.7c0,4.4-3.6,8-8,8
	h-36c-4.4,0-8-3.6-8-8v-36c0-4.4,3.6-8,8-8h36c4.4,0,8,3.6,8,8V344.7z"/>
<circle fill-rule="evenodd" clip-rule="evenodd" fill="none" stroke="#FFFFFF" stroke-width="11" stroke-miterlimit="10" cx="239" cy="240.8" r="231"/>
</svg>
