<?xml version="1.0" encoding="utf-8"?>
<!-- Generator: Adobe Illustrator 16.0.0, SVG Export Plug-In . SVG Version: 6.00 Build 0)  -->
<!DOCTYPE svg PUBLIC "-//W3C//DTD SVG 1.1//EN" "http://www.w3.org/Graphics/SVG/1.1/DTD/svg11.dtd">
<svg version="1.1" id="Layer_1" xmlns="http://www.w3.org/2000/svg" xmlns:xlink="http://www.w3.org/1999/xlink" x="0px" y="0px"
	 width="477.5px" height="477.5px" viewBox="0 0 477.5 477.5" enable-background="new 0 0 477.5 477.5" xml:space="preserve">
<path fill-rule="evenodd" clip-rule="evenodd" fill="#E5D3BD" d="M253.5,0c9.2,1.3,18.5,2.2,27.6,3.9C352,17.6,406.3,55.5,443.9,117
	c19.3,31.6,30,66.2,32.7,103.1c0.1,1.3,0.6,2.6,0.8,3.9c0,10,0,20,0,30c-0.4,3.1-0.8,6.2-1.2,9.3C470,318.5,448.2,366.6,409,406
	c-53.2,53.5-118.1,77-193.2,70.5c-52-4.5-98-24.6-136.6-59.9C20.6,362.8-5.6,295.5,1,216.2c4.3-51.5,24.4-96.9,58.8-135.5
	c36.5-41.1,82-66.8,136.1-76.7c9.1-1.7,18.4-2.7,27.6-4C233.5,0,243.5,0,253.5,0z M238.7,445.8c114-0.2,207.1-93.7,206.7-207.4
	C445,124.6,351.8,31.7,238.3,32C124.6,32.3,31.4,125.7,31.7,239.1C32,352.7,125.4,446,238.7,445.8z"/>
<path fill-rule="evenodd" clip-rule="evenodd" fill="#E5D3BD" d="M237.4,197.4c2.1,2.6,3.1,4.2,4.4,5.5
	c28.8,28.9,57.7,57.7,86.5,86.6c4.8,4.8,10.1,7.6,17,5.7c11.2-3,15.6-15.9,8.6-25.1c-1.1-1.4-2.4-2.7-3.7-4
	c-33-33-65.9-66-98.9-98.9c-9.5-9.5-18-9.5-27.5,0c-33.2,33.2-66.4,66.4-99.7,99.6c-4.6,4.6-7.5,9.7-5.9,16.5
	c2.8,11.7,16.2,16.3,25.6,8.8c1.6-1.2,2.9-2.7,4.4-4.1c28.4-28.4,56.8-56.8,85.1-85.2C234.4,201.6,235.4,200,237.4,197.4z"/>
</svg>
