<?xml version="1.0" encoding="utf-8"?>
<!-- Generator: Adobe Illustrator 16.0.0, SVG Export Plug-In . SVG Version: 6.00 Build 0)  -->
<!DOCTYPE svg PUBLIC "-//W3C//DTD SVG 1.1//EN" "http://www.w3.org/Graphics/SVG/1.1/DTD/svg11.dtd">
<svg version="1.1" id="Layer_1" xmlns="http://www.w3.org/2000/svg" xmlns:xlink="http://www.w3.org/1999/xlink" x="0px" y="0px"
	 width="4768px" height="3128px" viewBox="0 0 4768 3128" enable-background="new 0 0 4768 3128" xml:space="preserve">
<g>
	<g opacity="0.85">
		<path fill="#210F02" d="M1834.1,1520.6c-23.4,0-50.2,14.9-50.2,55.1c0,40.5,26.8,55.7,50.2,55.7c23.1,0,50.2-15.2,50.2-55.7
			C1884.3,1535.5,1857.2,1520.6,1834.1,1520.6z"/>
		<path fill="#210F02" d="M2022.1,1520.6c-23.4,0-50.2,14.9-50.2,55.1c0,40.5,26.8,55.7,50.2,55.7c23.1,0,50.2-15.2,50.2-55.7
			C2072.3,1535.5,2045.2,1520.6,2022.1,1520.6z"/>
		<path fill="#210F02" d="M2209.8,1521.2c-28.9,0-49.9,18.9-49.9,54.8s21,54.8,49.9,54.8c19.8,0,36.2-9.7,48.1-22.8V1544
			C2246,1530.9,2229.6,1521.2,2209.8,1521.2z"/>
		<path fill="#210F02" d="M744.9,1518.8c-19.5,0-42.9,12.8-44.7,44.4h89.8C788.1,1531.5,764.3,1518.8,744.9,1518.8z"/>
		<path fill="#210F02" d="M1009.9,1520.6c-28.9,0-51.7,17.3-51.7,53.9c0,36.5,22.8,53.9,51.7,53.9c21,0,35-11,46.2-22.5v-62.7
			C1044.9,1531.5,1030.9,1520.6,1009.9,1520.6z"/>
		<path fill="#210F02" d="M1203.4,1520.6c-23.4,0-50.2,14.9-50.2,55.1c0,40.5,26.8,55.7,50.2,55.7c23.1,0,50.2-15.2,50.2-55.7
			C1253.6,1535.5,1226.5,1520.6,1203.4,1520.6z"/>
		<path fill="#210F02" d="M2603.2,1520.6c-23.4,0-50.2,14.9-50.2,55.1c0,40.5,26.8,55.7,50.2,55.7c23.1,0,50.2-15.2,50.2-55.7
			C2653.4,1535.5,2626.3,1520.6,2603.2,1520.6z"/>
		<path fill="#210F02" d="M-18.7-21.6v3171.2h4805.4V-21.6H-18.7z M387.1,1641.4c0,7.6-6.4,13.7-14,13.7c-7.6,0-13.7-6.1-13.7-13.7
			v-187.7c0-7.6,6.1-14,13.7-14c7.6,0,14,6.4,14,14V1641.4z M477.7,1446.4v16.1c0,24.3-13.1,37.1-24.9,44.4c-0.9,0.6-3,1.5-5.2,1.5
			c-5.2,0-8.8-4.3-8.8-9.1c0-3.3,1.5-5.8,4.6-7.6c8.8-5.2,15.5-11.6,15.5-28.3h-1.2c-9.4,0-17-7.6-17-17v-1.8c0-9.4,7.6-17,17-17h3
			c9.4,0,17,7.6,17,17V1446.4z M646.9,1517.2L594,1643.8c-2.7,6.1-9.1,11.3-16.7,11.3h-3c-7.6,0-14-5.2-16.7-11.3l-52.9-126.6
			c-0.9-2.1-1.5-4-1.5-6.4c0-7.6,6.1-14,13.7-14c5.5,0,10.6,3.3,12.5,7.9l46.6,118.1l46.6-118.1c1.8-4.6,7-7.9,12.5-7.9
			c7.6,0,13.7,6.4,13.7,14C648.4,1513.3,647.8,1515.1,646.9,1517.2z M803.3,1585.7H700.1c3,27.4,20.4,45,53.2,45
			c18.3,0,29.8-3.7,41.1-9.4c1.8-0.9,3.3-1.2,5.5-1.2c6.4,0,12.2,4.9,12.2,11.9c0,4.9-3.7,8.8-7.9,11.3
			c-13.4,7.6-26.8,13.4-53.2,13.4c-49.6,0-78.8-29.5-78.8-80.6c0-41.1,22.2-80.6,72.7-80.6c46.9,0,72.4,36.2,72.4,76.7
			C817.3,1579.6,811.8,1585.7,803.3,1585.7z M1083.8,1646.9c0,51.1-25.9,79.7-71.5,79.7c-24.6,0-50.8-7.6-65.1-15.8
			c-3-1.8-5.5-4.9-5.5-10.6c0-6.1,5.2-12.5,12.2-12.5c2.1,0,4,0.6,5.5,1.2c12.8,6.4,29.5,11.6,50.2,11.6c31,0,46.6-16.7,46.6-49.6
			v-20.4c-12.5,13.4-29.2,23.1-52,23.1c-33.8,0-73.6-25.3-73.6-79.1s39.9-79.1,73.6-79.1c22.8,0,39.6,9.7,52,23.1v-7.6
			c0-7.6,6.1-14,13.7-14s14,6.4,14,14V1646.9z M1203.4,1656.6c-47.2,0-77.9-32.6-77.9-80.6c0-48.1,30.7-80.6,77.9-80.6
			c46.9,0,77.9,32.6,77.9,80.6C1281.3,1624,1250.2,1656.6,1203.4,1656.6z M1401.4,1651.1c-7.3,3.3-15.5,5.5-25.3,5.5
			c-14.3,0-44.4-2.4-44.4-40.2v-94.3h-21.6c-3.3,0-5.8-2.4-5.8-5.8c0-1.8,0.9-3.7,2.7-5.2l41.4-40.5c0.9-0.9,2.7-2.7,5.2-2.7
			c3.3,0,5.8,2.7,5.8,6.1v24.3h34.4c6.7,0,11.9,5.2,11.9,11.9c0,6.7-5.2,11.9-11.9,11.9h-34.4v91.9c0,18,12.2,18.3,19.8,18.3
			c9.7,0,13.1-2.7,18.3-2.7c5.5,0,11,4.6,11,11C1408.4,1645.6,1405.7,1649,1401.4,1651.1z M1730.3,1515.7l-43.2,126.6
			c-2.4,7-9.4,12.8-17.6,12.8s-15.2-5.8-18-13.1l-32.3-100.7L1587,1642c-2.7,7.3-9.7,13.1-18,13.1c-8.2,0-15.2-5.8-17.6-12.8
			l-43.2-126.6c-0.6-1.8-0.9-3.3-0.9-5.2c0-7.6,6.1-13.7,13.7-13.7c5.5,0,11,3,12.5,8.2l35.6,117.1l35.3-114.4
			c1.8-6.4,7.9-11,14.9-11c7,0,13.1,4.6,14.9,11l35.3,114.4l35.6-117.1c1.5-5.2,7-8.2,12.5-8.2c7.6,0,13.7,6.1,13.7,13.7
			C1731.2,1512.4,1730.9,1513.9,1730.3,1515.7z M1834.1,1656.6c-47.2,0-77.9-32.6-77.9-80.6c0-48.1,30.7-80.6,77.9-80.6
			c46.9,0,77.9,32.6,77.9,80.6C1912,1624,1880.9,1656.6,1834.1,1656.6z M2022.1,1656.6c-47.2,0-77.9-32.6-77.9-80.6
			c0-48.1,30.7-80.6,77.9-80.6c46.9,0,77.9,32.6,77.9,80.6C2100,1624,2069,1656.6,2022.1,1656.6z M2285.6,1641.4
			c0,7.6-6.1,13.7-13.7,13.7c-7.9,0-14-6.1-14-13.7v-7.9c-14,14.6-30.7,23.1-52,23.1c-36.8,0-73.6-28.9-73.6-80.6
			c0-51.7,36.8-80.6,73.6-80.6c21.3,0,38,8.5,52,23.1v-74.5c0-7.9,6.1-14,14-14c7.6,0,13.7,6.1,13.7,14V1641.4z M2496.1,1498.4
			c6.7,0,11.9,5.2,11.9,11.9c0,6.7-5.2,11.9-11.9,11.9h-38v119.3c0,7.6-6.1,13.7-14,13.7c-7.6,0-13.7-6.1-13.7-13.7v-119.3h-18
			c-6.7,0-11.9-5.2-11.9-11.9c0-6.7,5.2-11.9,11.9-11.9h18v-17.6c0-38.3,24-52.3,45.6-52.3c10,0,19.2,2.4,26.5,6.1
			c3.7,1.8,7,5.8,7,10.6c0,5.8-4.9,11.6-11.3,11.6c-4.9,0-9.4-1.8-15.2-1.8c-15.2,0-25,5.2-25,26.8v16.7H2496.1z M2603.2,1656.6
			c-47.2,0-77.9-32.6-77.9-80.6c0-48.1,30.7-80.6,77.9-80.6c46.9,0,77.9,32.6,77.9,80.6C2681.1,1624,2650.1,1656.6,2603.2,1656.6z
			 M2799.1,1522.1h-1.5c-20.1,0-36.5,11-47.2,26.8v92.5c0,7.6-6.4,13.7-14,13.7c-7.6,0-13.7-6.1-13.7-13.7v-130.5
			c0-7.6,6.1-14,13.7-14c7.6,0,14,6.4,14,14v13.1c11-14.6,26.8-28.6,47.8-28.6h1.5c7.6,0,13.4,6.1,13.4,13.7
			C2813.1,1516.9,2807.1,1522.1,2799.1,1522.1z M3055.6,1516l-83.1,199.6c-2.4,5.5-6.4,9.4-12.8,9.4c-7.3,0-13.1-6.1-13.1-13.4
			c0-1.5,0.3-3.3,0.9-4.9l19.8-50.8l-57.2-139.3c-0.6-1.5-1.2-3.7-1.2-5.8c0-7.6,6.1-14,13.7-14c5.8,0,10.6,3.7,12.8,8.5l46.9,116.2
			l47.8-115.6c2.4-5.5,6.7-9.1,12.8-9.1c7.6,0,13.7,6.4,13.7,14C3056.5,1512.7,3056.2,1514.5,3055.6,1516z M3157.8,1656.6
			c-47.2,0-77.9-32.6-77.9-80.6c0-48.1,30.7-80.6,77.9-80.6c46.9,0,77.9,32.6,77.9,80.6C3235.7,1624,3204.7,1656.6,3157.8,1656.6z
			 M3414.9,1641.1c0,7.9-6.1,14-13.7,14c-7.6,0-14-6.1-14-14v-12.5c-12.8,14-29.5,28-56.6,28c-34.7,0-54.5-27.1-54.5-59.6v-86.4
			c0-7.6,6.4-13.7,14-13.7c7.6,0,13.7,6.1,13.7,13.7v83.4c0,23.1,9.7,37.1,33.5,37.1c21.9,0,37.7-14,49.9-29.2v-91.3
			c0-7.6,6.4-13.7,14-13.7c7.6,0,13.7,6.1,13.7,13.7V1641.1z M3500.1,1637.4c0,9.4-7.6,17-17,17h-3c-9.4,0-17-7.6-17-17v-1.8
			c0-9.4,7.6-17,17-17h3c9.4,0,17,7.6,17,17V1637.4z"/>
		<path fill="#210F02" d="M3157.8,1520.6c-23.4,0-50.2,14.9-50.2,55.1c0,40.5,26.8,55.7,50.2,55.7c23.1,0,50.2-15.2,50.2-55.7
			C3208.1,1535.5,3181,1520.6,3157.8,1520.6z"/>
	</g>
	<g opacity="0.2">
		<path fill="#FFFFFF" d="M1353.7,1468.2c-2.4,0-4.3,1.8-5.2,2.7l-41.4,40.5c-1.8,1.5-2.7,3.3-2.7,5.2c0,3.3,2.4,5.8,5.8,5.8h21.6
			v94.3c0,37.7,30.1,40.2,44.4,40.2c9.7,0,18-2.1,25.3-5.5c4.3-2.1,7-5.5,7-10.6c0-6.4-5.5-11-11-11c-5.2,0-8.5,2.7-18.3,2.7
			c-7.6,0-19.8-0.3-19.8-18.3v-91.9h34.4c6.7,0,11.9-5.2,11.9-11.9c0-6.7-5.2-11.9-11.9-11.9h-34.4v-24.3
			C1359.5,1470.9,1357,1468.2,1353.7,1468.2z"/>
		<path fill="#FFFFFF" d="M1281.3,1576.2c0-48.1-31-80.6-77.9-80.6c-47.2,0-77.9,32.6-77.9,80.6s30.7,80.6,77.9,80.6
			C1250.2,1656.8,1281.3,1624.2,1281.3,1576.2z M1153.2,1575.9c0-40.2,26.8-55.1,50.2-55.1c23.1,0,50.2,14.9,50.2,55.1
			c0,40.5-27.1,55.7-50.2,55.7C1179.9,1631.5,1153.2,1616.3,1153.2,1575.9z"/>
		<path fill="#FFFFFF" d="M1009.6,1700.6c-20.7,0-37.4-5.2-50.2-11.6c-1.5-0.6-3.3-1.2-5.5-1.2c-7,0-12.2,6.4-12.2,12.5
			c0,5.8,2.4,8.8,5.5,10.7c14.3,8.2,40.5,15.8,65.1,15.8c45.6,0,71.5-28.6,71.5-79.7v-136c0-7.6-6.4-14-14-14
			c-7.6,0-13.7,6.4-13.7,14v7.6c-12.5-13.4-29.2-23.1-52-23.1c-33.8,0-73.6,25.3-73.6,79.1c0,53.9,39.9,79.1,73.6,79.1
			c22.8,0,39.6-9.7,52-23.1v20.4C1056.1,1683.9,1040.6,1700.6,1009.6,1700.6z M1009.9,1628.5c-28.9,0-51.7-17.3-51.7-53.9
			c0-36.5,22.8-53.9,51.7-53.9c21,0,35,11,46.2,22.5v62.7C1044.9,1617.5,1030.9,1628.5,1009.9,1628.5z"/>
		<path fill="#FFFFFF" d="M1912,1576.2c0-48.1-31-80.6-77.9-80.6c-47.2,0-77.9,32.6-77.9,80.6s30.7,80.6,77.9,80.6
			C1880.9,1656.8,1912,1624.2,1912,1576.2z M1783.9,1575.9c0-40.2,26.8-55.1,50.2-55.1c23.1,0,50.2,14.9,50.2,55.1
			c0,40.5-27.1,55.7-50.2,55.7C1810.6,1631.5,1783.9,1616.3,1783.9,1575.9z"/>
		<path fill="#FFFFFF" d="M1569.1,1655.3c8.2,0,15.2-5.8,18-13.1l32.3-100.7l32.3,100.7c2.7,7.3,9.7,13.1,18,13.1
			s15.2-5.8,17.6-12.8l43.2-126.6c0.6-1.8,0.9-3.3,0.9-5.2c0-7.6-6.1-13.7-13.7-13.7c-5.5,0-11,3-12.5,8.2l-35.6,117.1l-35.3-114.4
			c-1.8-6.4-7.9-11-14.9-11s-13.1,4.6-14.9,11l-35.3,114.4l-35.6-117.1c-1.5-5.2-7-8.2-12.5-8.2c-7.6,0-13.7,6.1-13.7,13.7
			c0,1.8,0.3,3.3,0.9,5.2l43.2,126.6C1553.9,1649.5,1560.9,1655.3,1569.1,1655.3z"/>
		<path fill="#FFFFFF" d="M817.3,1572.2c0-40.5-25.6-76.7-72.4-76.7c-50.5,0-72.7,39.6-72.7,80.6c0,51.1,29.2,80.6,78.8,80.6
			c26.5,0,39.9-5.8,53.2-13.4c4.3-2.4,7.9-6.4,7.9-11.3c0-7-5.8-11.9-12.2-11.9c-2.1,0-3.7,0.3-5.5,1.2c-11.3,5.8-22.8,9.4-41.1,9.4
			c-32.9,0-50.2-17.6-53.2-45h103.1C811.8,1585.9,817.3,1579.8,817.3,1572.2z M700.1,1563.4c1.8-31.6,25.3-44.4,44.7-44.4
			c19.5,0,43.2,12.8,45,44.4H700.1z"/>
		<path fill="#FFFFFF" d="M387.1,1641.6v-187.7c0-7.6-6.4-14-14-14s-13.7,6.4-13.7,14v187.7c0,7.6,6.1,13.7,13.7,13.7
			S387.1,1649.2,387.1,1641.6z"/>
		<path fill="#FFFFFF" d="M2100,1576.2c0-48.1-31-80.6-77.9-80.6c-47.2,0-77.9,32.6-77.9,80.6s30.7,80.6,77.9,80.6
			C2069,1656.8,2100,1624.2,2100,1576.2z M1971.9,1575.9c0-40.2,26.8-55.1,50.2-55.1c23.1,0,50.2,14.9,50.2,55.1
			c0,40.5-27.1,55.7-50.2,55.7C1998.7,1631.5,1971.9,1616.3,1971.9,1575.9z"/>
		<path fill="#FFFFFF" d="M443.4,1491.9c-3,1.8-4.6,4.3-4.6,7.6c0,4.9,3.7,9.1,8.8,9.1c2.1,0,4.3-0.9,5.2-1.5
			c11.9-7.3,24.9-20.1,24.9-44.4v-16.1v-1.8c0-9.4-7.6-17-17-17h-3c-9.4,0-17,7.6-17,17v1.8c0,9.4,7.6,17,17,17h1.2
			C458.9,1480.3,452.2,1486.7,443.4,1491.9z"/>
		<path fill="#FFFFFF" d="M574.2,1655.3h3c7.6,0,14-5.2,16.7-11.3l52.9-126.6c0.9-2.1,1.5-4,1.5-6.4c0-7.6-6.1-14-13.7-14
			c-5.5,0-10.6,3.3-12.5,7.9L575.7,1623L529.2,1505c-1.8-4.6-7-7.9-12.5-7.9c-7.6,0-13.7,6.4-13.7,14c0,2.4,0.6,4.3,1.5,6.4
			l52.9,126.6C560.2,1650.1,566.6,1655.3,574.2,1655.3z"/>
		<path fill="#FFFFFF" d="M2946.7,1711.9c0,7.3,5.8,13.4,13.1,13.4c6.4,0,10.3-4,12.8-9.4l83.1-199.6c0.6-1.5,0.9-3.3,0.9-5.2
			c0-7.6-6.1-14-13.7-14c-6.1,0-10.3,3.7-12.8,9.1l-47.8,115.6l-46.9-116.2c-2.1-4.9-7-8.5-12.8-8.5c-7.6,0-13.7,6.4-13.7,14
			c0,2.1,0.6,4.3,1.2,5.8l57.2,139.3l-19.8,50.8C2947,1708.5,2946.7,1710.3,2946.7,1711.9z"/>
		<path fill="#FFFFFF" d="M2736.5,1497.1c-7.6,0-13.7,6.4-13.7,14v130.5c0,7.6,6.1,13.7,13.7,13.7c7.6,0,14-6.1,14-13.7v-92.5
			c10.6-15.8,27.1-26.8,47.2-26.8h1.5c7.9,0,14-5.2,14-13.1c0-7.6-5.8-13.7-13.4-13.7h-1.5c-21,0-36.8,14-47.8,28.6v-13.1
			C2750.5,1503.4,2744.1,1497.1,2736.5,1497.1z"/>
		<path fill="#FFFFFF" d="M3235.7,1576.2c0-48.1-31-80.6-77.9-80.6c-47.2,0-77.9,32.6-77.9,80.6s30.7,80.6,77.9,80.6
			C3204.7,1656.8,3235.7,1624.2,3235.7,1576.2z M3107.6,1575.9c0-40.2,26.8-55.1,50.2-55.1c23.1,0,50.2,14.9,50.2,55.1
			c0,40.5-27.1,55.7-50.2,55.7C3134.4,1631.5,3107.6,1616.3,3107.6,1575.9z"/>
		<path fill="#FFFFFF" d="M3290.2,1497.1c-7.6,0-14,6.1-14,13.7v86.4c0,32.6,19.8,59.6,54.5,59.6c27.1,0,43.8-14,56.6-28v12.5
			c0,7.9,6.4,14,14,14c7.6,0,13.7-6.1,13.7-14v-130.5c0-7.6-6.1-13.7-13.7-13.7c-7.6,0-14,6.1-14,13.7v91.3
			c-12.2,15.2-28,29.2-49.9,29.2c-23.7,0-33.5-14-33.5-37.1v-83.4C3303.9,1503.1,3297.8,1497.1,3290.2,1497.1z"/>
		<path fill="#FFFFFF" d="M3483.1,1654.7c9.4,0,17-7.6,17-17v-1.8c0-9.4-7.6-17-17-17h-3c-9.4,0-17,7.6-17,17v1.8
			c0,9.4,7.6,17,17,17H3483.1z"/>
		<path fill="#FFFFFF" d="M2681.1,1576.2c0-48.1-31-80.6-77.9-80.6c-47.2,0-77.9,32.6-77.9,80.6s30.7,80.6,77.9,80.6
			C2650.1,1656.8,2681.1,1624.2,2681.1,1576.2z M2553,1575.9c0-40.2,26.8-55.1,50.2-55.1c23.1,0,50.2,14.9,50.2,55.1
			c0,40.5-27.1,55.7-50.2,55.7C2579.8,1631.5,2553,1616.3,2553,1575.9z"/>
		<path fill="#FFFFFF" d="M2483,1455.1c5.8,0,10.3,1.8,15.2,1.8c6.4,0,11.3-5.8,11.3-11.6c0-4.9-3.3-8.8-7-10.6
			c-7.3-3.7-16.4-6.1-26.5-6.1c-21.6,0-45.6,14-45.6,52.3v17.6h-18c-6.7,0-11.9,5.2-11.9,11.9c0,6.7,5.2,11.9,11.9,11.9h18v119.3
			c0,7.6,6.1,13.7,13.7,13.7c7.9,0,14-6.1,14-13.7v-119.3h38c6.7,0,11.9-5.2,11.9-11.9c0-6.7-5.2-11.9-11.9-11.9h-38v-16.7
			C2458.1,1460.2,2467.8,1455.1,2483,1455.1z"/>
		<path fill="#FFFFFF" d="M2271.9,1655.3c7.6,0,13.7-6.1,13.7-13.7v-197.5c0-7.9-6.1-14-13.7-14c-7.9,0-14,6.1-14,14v74.5
			c-14-14.6-30.7-23.1-52-23.1c-36.8,0-73.6,28.9-73.6,80.6c0,51.7,36.8,80.6,73.6,80.6c21.3,0,38-8.5,52-23.1v7.9
			C2257.9,1649.2,2264,1655.3,2271.9,1655.3z M2209.8,1630.9c-28.9,0-49.9-18.9-49.9-54.8s21-54.8,49.9-54.8
			c19.8,0,36.2,9.7,48.1,22.8v63.9C2246,1621.2,2229.6,1630.9,2209.8,1630.9z"/>
	</g>
</g>
</svg>
