<?xml version="1.0" encoding="utf-8"?>
<!-- Generator: Adobe Illustrator 16.0.0, SVG Export Plug-In . SVG Version: 6.00 Build 0)  -->
<!DOCTYPE svg PUBLIC "-//W3C//DTD SVG 1.1//EN" "http://www.w3.org/Graphics/SVG/1.1/DTD/svg11.dtd">
<svg version="1.1" xmlns="http://www.w3.org/2000/svg" xmlns:xlink="http://www.w3.org/1999/xlink" x="0px" y="0px" width="424px"
	 height="569.4px" viewBox="0 0 424 569.4" enable-background="new 0 0 424 569.4" xml:space="preserve">
<g id="Layer_1">
</g>
<g id="Layer_2">
	<g id="Layer_3">
	</g>
</g>
<g id="Layer_4">
</g>
<g id="Layer_5">
	<path fill="none" stroke="#1A1718" stroke-miterlimit="10" d="M201.2,81.543c-6.64-9.624-74.664-58.457-75.993-10.192
		c-30.553-20.478-48.264-3.101-27.01,10.184c-77.933-3.542-55.794,67.749-47.822,63.292c-11.514-2.234-26.126,22.611-7.972,35.011
		c-17.268-5.314-10.485,17.27,0.443,12.977c-19.926,22.447,7.33,38.831,22.386,41.489c-22.829,30.552,16.925,61.399,26.666,48.115
		c4.675,28.783,51.365,31.873,60.251,17.837c8.886-14.031,12.521,16.693,49.275-2.789C238.177,277.983,201.2,81.543,201.2,81.543z"
		/>
	<path opacity="0.25" fill="none" stroke="#1A1718" stroke-miterlimit="10" d="M90.748,126.818
		c-6.817,8.34-24.028,52.65-25.044,63.55c-0.479,5.172,3.779,14.237,6.835,18.501c1.663,2.319,3.679,3.986,6.205,5.312
		c0.362,0.189,4.904,2.4,5.575,2.015c1.474,0.338,0.686-0.646-2.362-2.951c-0.061,1.66-0.108,3.316-0.14,4.975
		c-0.064,3.316-0.069,6.636-0.021,9.95c0.09,5.898-0.259,12.426,2.35,17.872c5.705,11.903,18.883,12.112,30.154,9.761
		c-4.086-4.084-8.169-8.169-12.254-12.256c-2.234,8.771-4.612,22.17,2.779,29.243c3.594,3.441,8.867,4.447,13.521,2.798
		c2.161-0.768,4.234-2.038,5.917-3.621c0.894-0.857,1.699-1.788,2.419-2.794c1.689-1.678,1.645-1.822-0.144-0.442
		c-3.749-1.526-7.499-3.053-11.249-4.577c2.146,3.774,1.263,8.44,1.415,12.639c0.185,5.114,0.943,10.097,3.258,14.717
		c4.278,8.529,12.693,14.885,22.152,16.327c5.343,0.813,10.666-1.279,12.255-6.96c2.003-7.16,0.973-14.213-1.62-21.075
		c-2.33-6.166-5.831-12.108-5.308-18.882c-6.187,1.675-12.375,3.351-18.563,5.027c3.073,5.603,3.754,12.192,6.165,18.093
		c2.544,6.219,6.234,11.057,11.868,14.786c5.432,3.591,12.993-0.037,14.637-5.954c3.539-12.748-7.03-23.865-14.038-33.396
		c-7.905-10.75-16.148-21.409-25.112-31.301c-6.703-7.395-21.001-17.563-30.437-8.125c-9.137,9.135,2.61,24.028,8.647,31.393
		c3.439,4.194,10.516,3.498,14.092,0c4.159-4.071,3.39-9.953,0-14.089c-2.683-3.272-5.525-7.462-6.548-11.61
		c0,1.765,0,3.531,0,5.298c0.153-0.432,0.307-0.867,0.46-1.3c-2.318,2.32-4.638,4.641-6.958,6.96
		c3.702-1.394,18.341,19.4,21.093,22.89c3.612,4.58,7.101,9.259,10.503,13.998c1.685,2.346,9.873,11.141,9.084,13.986
		c4.879-1.986,9.757-3.969,14.636-5.955c-3.391-2.243-4.282-6.994-5.28-10.643c-1.434-5.243-2.978-10.297-5.605-15.087
		c-5.066-9.228-17.847-4.268-18.566,5.029c-0.513,6.612,1.389,12.813,3.848,18.866c1.973,4.851,5.278,10.469,3.789,15.794
		c4.086-2.318,8.171-4.639,12.257-6.959c-6.812-1.04-10.47-4.939-10.783-11.828c-0.367-8.094,0.019-15.396-4.135-22.697
		c-2.073-3.644-7.145-5.959-11.25-4.577c-2.574,0.866-4.676,1.819-6.73,3.648c-0.668,0.598-2.661,3.574-3.109,3.712
		c1.763,0,3.53,0,5.297,0c2.567,5.045,3.664,6.067,3.296,3.067c-0.077-1.263-0.08-2.526-0.01-3.791
		c0.14-2.518,0.651-4.865,1.273-7.311c1.953-7.676-4.852-13.799-12.255-12.255c-1.381,0.286-6.727,1.061-6.925,0.878
		c-1.341-1.236-0.372-9.912-0.387-11.783c-0.045-7.123,1.854-16.026-2.418-22.241c-2.067-3.003-5.036-4.782-8.404-6.021
		c-0.888-0.327-2.184-0.436-2.975-0.93c1.423,0.889,0.67,1.864,0.918,0.348c1.065-6.534,3.135-12.344,7.41-17.575
		c3.43-4.198,4.03-9.972,0-14.092c-3.476-3.551-10.695-4.153-14.09,0L90.748,126.818z"/>
	<path fill="none" stroke="#1A1718" stroke-miterlimit="10" d="M185.706,81.66c21.255,0.442,166.934,32.325,149.666,100.958
		c-17.271,68.636-110.26,109.816-140.812,106.274c-30.553-3.543-70.407-25.684-76.605-32.325
		c-6.197-6.645-45.165-47.824-34.095-101.401c11.069-53.579,41.621-68.193,54.023-71.29C150.279,80.774,185.706,81.66,185.706,81.66
		z"/>
	<path fill="none" stroke="#1A1718" stroke-miterlimit="10" d="M159.462,142.119c4.812,5.048,6.877,15.871,16.562,12.091
		c7.198-2.808,13.539-9.848,19.383-14.671c6.305-5.208,14.602-13.809,22.956-15.433c7.223-1.404,11.814,17.282,17.08,20.696
		c3.303,2.141,7.027-1.679,3.249-4.127c-2.523-1.637-4.533-7.968-6.087-10.527c-2.37-3.907-5.31-7.291-9.185-9.736
		c-6.413-4.044-13.456,0.435-18.854,4.034c-8.497,5.664-16.099,12.635-24.022,19.044c-2.498,2.024-5.135,4.395-8.06,5.794
		c-2.439,1.167-6.628-8.479-8.36-10.297C161.663,136.405,156.356,138.859,159.462,142.119L159.462,142.119z"/>
	<path fill="none" stroke="#1A1718" stroke-miterlimit="10" d="M129.146,140.239c-1.614,2.248-2.72,4.866-4.068,7.277
		c-0.906,1.62-1.97,3.082-3.213,4.452c1.212,0.739,1.26,0.796,0.146,0.169c-0.642-0.35-1.282-0.7-1.922-1.053
		c-6.529-3.587-13.058-7.243-19.948-10.102c-11.189-4.64-17.521,1.423-24.877,9.806c-0.681,0.777,5.429,1.915,6.663,0.508
		c1.512-1.725,3.102-3.379,4.719-5.007c1.12-1.127,2.305-2.182,3.503-3.223c0.901-0.808,1.883-1.498,2.945-2.07
		c-1.95-0.042-2.159,0.103-0.628,0.433c7.197,2.178,14.018,6.526,20.569,10.123c4.288,2.357,7.827,4.21,12.807,2.688
		c5.361-1.637,7.052-9.439,9.966-13.495C136.513,139.763,130.196,138.778,129.146,140.239L129.146,140.239z"/>
	<path fill="none" stroke="#1A1718" stroke-miterlimit="10" d="M71.665,164.634c46.205,1.833,92.41,3.723,138.612,5.677
		c11.651,0.491,23.324,0.848,34.965,1.546c7.765,0.464,16.07-2.364,23.482-4.299c6.366-1.66,12.699-3.474,18.993-5.391
		c8.67-2.642-0.729-9.571-6.537-7.801c-5.819,1.772-11.674,3.428-17.548,5.008c-5.642,1.517-14.343,4.088-18.653,3.855
		c-12.394-0.67-24.805-1.107-37.209-1.629c-45.207-1.911-90.416-3.759-135.628-5.553C63.735,155.715,63.21,164.298,71.665,164.634
		L71.665,164.634z"/>
	<path fill="none" stroke="#1A1718" stroke-miterlimit="10" d="M161.932,168.131c1.351,3.829,1.384,8.216,1.987,12.205
		c0.94,6.224,2.621,12.215,5.563,17.797c7.722,14.652,25.799,18.872,41.131,17.128c24.667-2.807,37.511-24.701,36.06-48.234
		c-0.047-0.735-1.388-0.925-1.886-0.946c-25.978-1.15-51.956-2.297-77.932-3.447c-1.221-0.054-4.924,0.193-4.924,2.053
		C161.932,165.835,161.932,166.983,161.932,168.131c0,1.812,6.807,1.109,6.807-1.104c0-1.148,0-2.298,0-3.445
		c-1.641,0.682-3.282,1.367-4.923,2.051c25.979,1.149,51.955,2.297,77.933,3.446c-0.628-0.315-1.257-0.63-1.885-0.947
		c1.163,18.861-7.403,40.968-28.09,44.119c-15.899,2.422-31.354-4.773-37.603-19.688c-3.454-8.241-2.529-17.315-5.433-25.536
		C167.995,164.924,161.338,166.45,161.932,168.131z"/>
	<path fill="none" stroke="#1A1718" stroke-miterlimit="10" d="M75.521,162.425c-0.011,16.094,0.212,42.543,18.894,48.897
		c27.151,9.234,34.059-27.699,39.02-45.811c0.582-2.129-2.97-3.621-4.532-3.92c-16.898-3.252-35.6-4.206-52.483-0.006
		c-2.836,0.704,2.445,4.828,4.355,4.353c16.552-4.117,34.669-3.196,51.239-0.007c-1.512-1.306-3.021-2.613-4.531-3.92
		c-4.203,15.353-8.865,47.182-30.453,46.138c-16.229-0.783-15.363-31.666-15.355-43.052
		C81.674,162.943,75.522,160.206,75.521,162.425z"/>
	<path fill="none" stroke="#1A1718" stroke-miterlimit="10" d="M137.994,185.771c-16.89-23.554-47.056,29.834,0,24.621"/>
	<path fill="none" stroke="#1A1718" stroke-miterlimit="10" d="M140.729,185.806c-4.091-5.497-10.557-9.507-17.594-7.896
		c-5.793,1.327-10.228,6.65-12.283,11.966c-2.273,5.879-1.233,12.082,3.18,16.616c6.606,6.791,17.486,6.941,26.195,6.062
		c1.657-0.167,0.643-2.08,0.008-2.693c-1.192-1.156-2.828-1.795-4.477-1.63c-5.394,0.544-14.029,1.322-17.894-3.536
		c-2.718-3.417-2.154-8.363-0.684-12.162c2.798-7.24,11.979-14.986,18.077-6.795C136.559,187.487,143.04,188.911,140.729,185.806
		L140.729,185.806z"/>
	<path fill="none" stroke="#1A1718" stroke-miterlimit="10" d="M112.657,239.47c18.877,3.343,38.91,3.516,58.008,3.186
		c11.033-0.192,22.122-1.008,32.944-3.21c2.812-0.572,19.87-5.839,14.142-11.615c-1.34-1.353-6.409,1.24-6.85,0.795
		c6.287,6.343-13.805,10.866-16.265,11.241c-10.907,1.667-22.148,1.637-33.153,1.46c-14.201-0.23-28.949-0.604-42.975-3.087
		C117.136,237.997,111.72,239.306,112.657,239.47L112.657,239.47z"/>
	<path fill="none" stroke="#1A1718" stroke-miterlimit="10" d="M201.615,222.692c5.569,6.177,15.598,14.069,24.438,11.617
		c3.354-0.931,4.316-5.42-0.11-4.192c-3.433,0.952-8.438-2.919-11.034-4.694c-2.825-1.931-5.573-4.169-7.869-6.715
		C205.389,216.877,199.561,220.414,201.615,222.692L201.615,222.692z"/>
	<path fill="none" stroke="#1A1718" stroke-miterlimit="10" d="M173.978,173.764c5.085,1.327,50.693,0,53.793,0
		c3.101,0-4.871,24.354-33.21,19.926C175.19,190.662,173.978,173.764,173.978,173.764z"/>
	<path fill="none" stroke="#1A1718" stroke-miterlimit="10" d="M174.608,176.064c8.525,1.848,18.254,0.729,26.899,0.63
		c6.021-0.071,12.043-0.189,18.062-0.317c2.001-0.042,4.006-0.088,6.007-0.133c0.685-0.015,1.369-0.03,2.055-0.044
		c3.241-0.067-1.416,0.438-2.315-2.533c0.765,2.524-2.873,6.967-4.232,8.695c-3.89,4.938-9.749,7.744-15.781,8.971
		c-11.908,2.43-27.091-2.973-28.228-16.261c-0.215-2.506-6.414-5.177-6.197-2.619c2.453,28.642,49.429,32.825,59.758,7.345
		c4.117-10.158-9.116-8.35-15.024-8.226c-8.073,0.174-16.145,0.312-24.218,0.357c-5.759,0.033-12.371,0.761-18.046-0.47
		C168.925,170.504,171.935,175.485,174.608,176.064z"/>
	<path opacity="0.25" fill="none" stroke="#1A1718" stroke-miterlimit="10" d="M153.225,276.273
		c11.226,0.22,20.753,7.303,38.501,6.567c26.938-1.12,39.635-12.99,47.358-22.73c7.729-9.742,5.778-23.47,16.581-39.41
		c3.868-5.707,18.167-16.492,25.696-13.669c7.524,2.824-28.887,43.512-24.634,53.165c4.252,9.654-17.002,29.132-37.371,33.562
		c-20.369,4.433-41.859,5.754-50.376,0C160.464,288.006,153.225,276.273,153.225,276.273z"/>
	<path fill="none" stroke="#1A1718" stroke-miterlimit="10" d="M86.133,169.453c5.762,0,32.8,0,32.8,0s-7.462,21.72-20.389,20.526
		C89.274,189.122,86.133,169.453,86.133,169.453z"/>
	<path fill="none" stroke="#1A1718" stroke-miterlimit="10" d="M87.057,172.455c10.933,0,21.866,0,32.799,0
		c-1.367-1.415-2.732-2.829-4.1-4.242c-2.332,6.648-6.284,13.556-12.256,17.486c-6.272,4.129-9.78-2.129-11.737-7.185
		c-0.7-1.806-1.213-3.686-1.698-5.559c-0.156-0.61-0.795-3.758-0.672-3.01c-0.568-3.42-7.187-4.992-6.52-0.986
		c1.534,9.243,5.682,23.658,17.089,24.035c11.496,0.383,18.863-12.938,22.148-22.301c0.847-2.419-2.11-4.242-4.101-4.242
		c-10.934,0-21.866,0-32.8,0C80.875,166.452,83.508,172.455,87.057,172.455z"/>
	<path fill="none" stroke="#1A1718" stroke-miterlimit="10" d="M260.537,265.423c18.156,20.959,44.848-17.557,56.507-24.062
		c11.976-6.684,9.208,22.734,19.744,20.078c10.538-2.658-2.303-34.982,34.006-26.125c-10.625-10.627,18.049-31.881,3.1-49.99
		c-6.683-8.094,22.584-19.975,12.843-40.784c-4.847-10.348-25.239-20.369-40.001-4.036c-2.657-7.528,38.648-47.624,20.518-62.384
		c-30.465-24.797-58.893,20.811-65.094,7.525c-6.196-13.283,12.843-36.861-12.398-48.264C274.783,30.613,255.348,48,243.833,56.965
		c-0.565-13.384-61.641-25.072-69.415-0.219c-3.745,11.98,15.583,25.346,24.979,26.644c55.351,7.644,25.914,51.659,37.671,74.877
		c8.573,16.925,48.268-10.188,55.794,16.824C299.479,198.837,230.318,230.537,260.537,265.423z"/>
	<path opacity="0.25" fill="none" stroke="#1A1718" stroke-miterlimit="10" d="M235.505,114.878
		c6.878,13.718-6.193,25.233,12.739,29.218c18.936,3.983,42.404-2.42,47.274,8.091c4.871,10.506,11.389,21.214,7.972,31.499
		c-1.303,3.919-6.56,10.028-12.423,16.729c-9.528,10.892-20.661,23.342-19.017,30.469c2.655,11.514,2.256,27.166,17.069,18.233
		c14.812-8.935,33.852-28.86,40.495-20.888c6.641,7.97-2.659,17.269,3.097,19.038c5.758,1.771,11.395,7.203,7.734,10.688
		c-3.658,3.483-4.213,6.084-6.406,3.925c-2.188-2.156-7.084-8.411-7.969-13.283c-0.884-4.871-4.916-10.217-9.027-7.236
		c-4.113,2.979-29.473,29.467-35.683,29.855c-6.212,0.391-23.433,0.915-27.79-18.533c-4.358-19.45,2.443-27.882,11.567-33.253
		c9.125-5.372,19.33-26.695,16.223-37.067c-3.113-10.37-3.152-20.869-14.245-19.642s-23.312,4.858-26.681,0.2
		c-3.367-4.654-9.827-19.166-6.309-29.628c3.521-10.462,0.482-21.079,0.482-21.079L235.505,114.878z"/>
	<path fill="none" stroke="#1A1718" stroke-miterlimit="10" d="M261.422,179.076c30.555-60.663,68.634,47.38,7.086,24.798"/>
	<path fill="none" stroke="#1A1718" stroke-miterlimit="10" d="M182.729,176.642c-0.941,1.966-1.579,4.937,1.311,5.611
		c2.553,0.594,4.884-0.837,6.377-2.794c3.745-4.907-4.85-6.712-7.726-3.573c-3.32,3.624-1.181,10.562,4.449,9.134
		c4.587-1.164,8.186-8.61,3.523-11.795c-1.718-1.175-4.816-0.173-6.184,1.109c-1.888,1.771-3.573,4.962-3.171,7.628
		c0.739,4.906,8.315,6.868,11.092,2.375c2.484-4.022,1.804-10.857-4.145-10.443c-5.407,0.378-9.245,5.658-5.796,10.591
		c1.739,2.491,5.387,0.501,6.792-1.174c2.071-2.467,3.602-5.904,1.95-8.966c-1.415-2.623-4.836-2.938-7.409-2.193
		c-3.207,0.931-4.615,4.525-4.377,7.615c0.241,3.142,4.692,3.951,7.062,3.737c2.913-0.261,5.611-2.45,6.251-5.297
		c0.649-2.91-2.57-4.345-4.896-3.395c-3.434,1.398-3.597,5.636-2.854,8.797c0.337,1.436,2.982,0.344,3.613-0.158
		c2-1.59,1.288-3.523,1.286-5.738c-0.002-0.537,0.667-1.274,0.014-1.188c0.549-0.071,1.101-0.103,1.639-0.247
		c0.918-0.247,1.709-0.709,2.192-1.533c0.193-0.329,0.177-0.562-0.02-0.877c-0.376-0.599-0.711-0.682-1.386-0.856
		c-0.856-0.221-2.225,0.07-2.824,0.758c-0.531,0.604-0.762,0.906-0.976,1.684c-0.43,1.564,3.398,0.89,3.873-0.156
		c0.414-0.91,0.839-1.42,1.719-1.925c0.593-0.34,1.162-1.221,0.327-1.653c-0.88-0.456-2.043-0.106-2.838,0.349
		c-1.312,0.753-2.317,1.688-2.947,3.075c1.291-0.051,2.583-0.104,3.873-0.156c0.065-0.153,0.133-0.309,0.198-0.463
		c-0.941,0.253-1.883,0.502-2.827,0.758c0.036,0.061,0.07,0.125,0.106,0.188c-0.007-0.293-0.013-0.586-0.021-0.878
		c1.2-0.421,1.34-0.56,0.421-0.41c-0.563,0.051-1.078,0.169-1.609,0.356c-1.013,0.358-1.7,0.892-2.356,1.73
		c-1.449,1.862,0.765,4.968-1.075,6.431c1.205-0.054,2.408-0.106,3.614-0.159c-0.373-1.59-0.391-3.05-0.062-4.65
		c0.08-0.267,0.161-0.535,0.24-0.805c-0.99-0.269-1.15-0.028-0.479,0.725c0.299,0.749-0.153,1.691-0.504,2.308
		c-1.159,2.034-3.735,0.707-4.573-0.827c-0.542-0.989,0.061-5.349,1.797-5.075c3.908,0.615,2.291,5.688,1.011,7.701
		c-0.145,0.208-0.29,0.42-0.438,0.628c-0.679,0.698-0.614,0.812,0.194,0.341c-0.552-0.517-0.7-1.516-0.868-2.206
		c-0.423-1.749,0.415-5.186,2.897-4.23c2.642,1.018,1.567,8.621-0.757,7.678c-1.857-0.755-2.248-2.727-2.026-4.511
		c0.079-0.632,1.456-5.224,2.735-3.786c0.965,1.083,0.511,3.08,0.232,4.308c-0.219,0.959-0.704,1.856-1.37,2.571
		c-0.375,0.402-1.537-1.373-1.605-1.493c-0.369-0.666-0.896-5.327,1.254-4.417c1.128,0.48,0.435,1.824,0.022,2.507
		c-0.254-0.028-0.505-0.06-0.757-0.092c-0.125-0.869,0.059-1.675,0.547-2.418C187.332,174.982,183.325,175.392,182.729,176.642
		L182.729,176.642z"/>
	<path fill="none" stroke="#1A1718" stroke-miterlimit="10" d="M90.067,172.565c0.138,2.045-2.536,5.004,0.313,6.383
		c1.944,0.94,4.736,0.717,6.296-0.908c1.851-1.926,1.639-5.34,1.08-7.735c-0.518-2.217-4.029-1.197-5.31-0.461
		c-2.079,1.194-2.39,3.412-2.372,5.593c0.011,1.609,0.05,3.216,0.075,4.822c0.023,1.363,0.124,2.141,1.478,2.652
		c1.767,0.668,4.562-0.449,5.723-1.83c1.794-2.133,2.058-4.962,1.051-7.499c-0.903-2.282-2.69-3.451-5.07-2.613
		c-2.55,0.896-2.772,3.653-2.727,6.079c0.048,2.53,0.967,3.731,3.572,3.454c2.722-0.289,3.771-3.151,4.599-5.365
		c0.593-1.585,1.634-4.373-1.003-4.367c-2.712,0.007-4.289,1.779-5.162,4.146c-0.596,1.609-0.627,5.8,1.748,6.053
		c1.959,0.208,4.595-0.436,5.366-2.529c0.742-2.016,1.392-5.316-0.856-6.667c-1.924-1.155-4.469-0.87-6.339,0.254
		c-2.313,1.392,1.241,1.745,2.438,1.025c0.442-0.265,1.323,1.887,1.387,2.204c0.196,1.008-0.101,2.096-0.369,3.061
		c-0.663,1.094-0.396,1.17,0.803,0.226c-0.192-0.472-0.328-0.961-0.407-1.466c-0.108-0.657-0.099-1.315,0.032-1.976
		c0.062-0.245,0.122-0.489,0.183-0.735c0.583-0.849,0.219-1.366-1.095-1.553c-0.102,2.082-1.197,4.319-2.224,6.068
		c1.307-0.092,1.773-0.535,1.402-1.331c-0.073-0.697-0.089-1.397-0.054-2.101c0.033-0.525,0.092-1.05,0.183-1.568
		c0.058-0.391,0.759-1.696,0.054-1.447c-0.669,0.096-1.339,0.192-2.01,0.287c1.166,0.297,1.707,2.239,1.989,3.233
		c0.362,1.261,0.108,2.519-0.306,3.717c-0.799,2.294-0.383-0.487-0.396-1.287c-0.021-1.34-0.044-2.679-0.062-4.017
		c-0.028-0.542-0.004-1.083,0.07-1.622c0.041-0.204,0.083-0.409,0.127-0.616c0.682-0.926,0.511-1.177-0.518-0.75
		c0.566,1.504,0.403,3.291,0.11,4.819c-0.097,0.521-0.27,1.01-0.521,1.47c0.399-0.688-0.345-1.764-0.131-2.63
		c0.319-1.286,0.946-2.168,0.854-3.543C93.989,170.327,89.971,171.135,90.067,172.565L90.067,172.565z"/>
	<path fill="none" stroke="#1A1718" stroke-miterlimit="10" d="M268.508,261.88c20.228,0.559,17.651,27.745,15.236,27.153
		c-4.071-0.999-100.123,10.198-102.396,7.539C179.075,293.917,264.82,261.778,268.508,261.88z"/>
	<path fill="none" stroke="#1A1718" stroke-miterlimit="10" d="M159.18,299.81c-5.856,7.984-27.837,51.922-15.882,67.529
		c11.956,15.608,36.758,45.83,49.433,53.136c12.67,7.308,35.254,26.568,71.453,27.234c36.197,0.663,35.866-4.319,51.808-6.976
		c15.939-2.657,35.202-6.311,40.182-1.992c4.984,4.316-26.565-83.025-53.799-100.627c-27.231-17.601-89.334-42.5-99.298-41.514
		C193.111,297.59,162.367,295.462,159.18,299.81z"/>
	<path fill="none" stroke="#1A1718" stroke-miterlimit="10" d="M145.271,356.577c-1.516,0.663-6.046-21.463-10.602-18.95
		c-3.214,1.772-1.676,5.147,1.042,9.127"/>
	<path fill="none" stroke="#1A1718" stroke-miterlimit="10" d="M145.201,357.281c-0.123,0-0.245-0.024-0.362-0.078
		c-0.776-0.339-1.347-1.838-2.909-6.386c-1.616-4.7-4.056-11.805-6.214-12.637c-0.251-0.096-0.473-0.082-0.714,0.051
		c-0.772,0.426-1.224,0.954-1.381,1.609c-0.412,1.727,1.204,4.395,2.661,6.522l-1.142,0.78c-1.801-2.64-3.395-5.388-2.863-7.622
		c0.249-1.042,0.942-1.884,2.058-2.498c0.594-0.328,1.24-0.376,1.879-0.129c2.554,0.983,4.605,6.44,7.022,13.474
		c0.8,2.327,1.794,5.225,2.226,5.613c-0.057-0.052-0.254-0.135-0.471-0.037l0.557,1.265
		C145.437,357.257,145.32,357.281,145.201,357.281z"/>
	<path opacity="0.25" fill="none" stroke="#1A1718" stroke-miterlimit="10" d="M154.294,311.854
		c-2.685,8.476-13.729,28.003-8.121,35.34c5.607,7.338,73.532,61.94,84.221,63.924c10.686,1.986,12.432-4.094,26.157-12.681
		c13.727-8.587,19.032,1.619,28.812,7.747c21.532,13.492,30.919,27.087,39.252,29.314c55.479,14.836,12.378-56.468-7.918-78.733
		c-20.294-22.265-33.939-27.32-58.993-41.512c-25.05-14.193-36.593-24.499-65.145-19.01
		C164.008,301.731,154.294,311.854,154.294,311.854z"/>
	<path fill="none" stroke="#1A1718" stroke-miterlimit="10" d="M135.602,346.938c-2.215-1.679-8.017-4.468-9.453-1.812
		c-1.611,2.976,5.256,7.095,10.185,10.298c-2.215-1.441-10.408-5.458-12.398-2.881c-1.742,2.253,8.965,8.523,13.949,10.184
		c4.92,1.641,10.473,5.826,14.258,3.091c0.087-0.063,0.147-0.15,0.179-0.254c0.198-0.667,0.911-3.341,0.283-5.159
		c-3.122-9.037-16.22-29.357-18.596-35.203c4.76-7.307,22.582-9.694,26.567-13.347c3.985-3.654-10.627-8.937-10.627-8.937
		c-8.636,2.024-24.392,17.302-24.648,22.617c-0.112,2.272,3.786,8.198,8.162,14.283c5.85,8.134,12.555,16.553,11.689,16.935"/>
	<path fill="none" stroke="#1A1718" stroke-miterlimit="10" d="M242.604,337.483c-3.486,1.718-40.517,21.254-35.866,34.54
		c4.647,13.282,24.242,13.616,31.882,11.29c7.638-2.324-3.987-5.645-6.642-6.31c-2.657-0.664,12.286,0,10.626-3.653
		c-1.659-3.652-10.743,1.329-12.843-0.996c-2.103-2.324,10.52-0.996,11.184-4.649c0.664-3.651-16.613,2.43-19.263,2.657
		c-3.849,0.333-5.495-2.99-3.411-4.981c2.083-1.991,35.624-23.247,40.273-23.581c4.65-0.331,3.654-7.637,1.993-10.626
		c-1.66-2.989-8.495-13.946-13.048-17.933c-4.554-3.986-23.598,1.5-21.157,5.312C228.77,322.368,246.744,335.446,242.604,337.483z"
		/>
	<path fill="none" stroke="#1A1718" stroke-miterlimit="10" d="M137.994,453.98c-4.878,0.442-34.413,9.751-36.046,11.081
		c-1.632,1.33-4.686-28.285,5.263-29.254c9.949-0.971,21.966-0.443,25.267,4.433C135.776,445.115,137.994,453.98,137.994,453.98z"/>
	<path fill="none" stroke="#1A1718" stroke-miterlimit="10" d="M212.271,496.124c-4.87-0.446-20.23-2.216-25.17,19.925
		c15.151,1.771,40.444,3.38,42.659,2.495s-5.492-22.869-11.49-22.645"/>
	<path fill="none" stroke="#1A1718" stroke-miterlimit="10" d="M169.319,373.024c-7.433-0.031-44.155-23.218-53.736-16.259
		c-9.584,6.96-0.283,79.58,3.257,83.565c3.544,3.984,3.984,7.97,9.3,6.642c5.313-1.33,5.561-3.985,4.231-6.642
		c-1.328-2.659-8.372-51.045-4.83-55.914c3.543-4.87,46.651,11.32,50.635,16.191c3.986,4.87,18.155,45.034,23.249,55.219
		c5.09,10.185,14.709,39.41,13.665,41.182c-1.048,1.77,7.81,15.055,10.907,13.282c3.102-1.769-7.044-51.807-7.727-63.318
		c-0.684-11.513,4.226-42.509,0-47.823C214.042,393.835,169.319,373.024,169.319,373.024z"/>
	<path opacity="0.25" fill="none" stroke="#1A1718" stroke-miterlimit="10" d="M191.726,293.758
		c10.954-2.552,74.12-25.808,83.424-22.151c9.304,3.655,11.515,7.313,9.3,11.414c-2.214,4.101-91.056,15.708-91.89,13.224"/>
	<path fill="none" stroke="#1A1718" stroke-miterlimit="10" d="M151.324,298.453c-5.693,2.5-8.349,1.116-4.032,4.465
		c4.317,3.348,10.293,13.977,10.293,16.301c0,2.323,3.986,1.992,6.976,0c2.989-1.991-25.904,29.557-5.646,50.812
		c20.258,21.254,53.801,33.211,57.786,35.865c3.985,2.656,5.132-14.611,1.569-20.59c-3.562-5.977-9.541-12.288-10.538-20.923
		c-0.995-8.635-3.652-43.836,3.986-43.504c7.638,0.332,5.75,8.968,8.688,9.63c2.937,0.665,9.529-11.016,14.561-15.038
		c5.028-4.021,17.602-1.898,10.294-8.207c-7.305-6.311-33.876-14.281-41.513-11.293c-7.639,2.989-11.062,1.22-18.649-2.213"/>
	<path fill="none" stroke="#1A1718" stroke-miterlimit="10" d="M192.56,296.244c7.295,1.648,67.313,8.03,109.158,61.83
		c41.844,53.8,53.469,119.889,52.139,121.549c-1.328,1.66,2.659-30.222,9.3-41.181c6.642-10.961,31.883-42.473,27.897-47.139
		c-3.984-4.67-2.657-29.245-57.122-61.79c-54.463-32.546-58.601-25.903-61.515-33.543
		C269.503,288.334,192.56,296.244,192.56,296.244z"/>
	<path fill="none" stroke="#1A1718" stroke-miterlimit="10" d="M187.102,291.652c-9.015-3.058-37.091-18.107-40.144-14.942
		c-3.644,3.779-1.991,22.914,6.311,21.918c8.303-0.996,21.255-0.579,24.907,2.079c3.654,2.655,4.318,1.24,6.976-0.751
		C187.808,297.964,189.477,292.459,187.102,291.652z"/>
	<path fill="none" stroke="#1A1718" stroke-miterlimit="10" d="M288.44,301.881c-9.4,4.141-101.398-4.256-101.339-7.217
		c0.061-2.962,92.581-13.303,97.348-11.644C289.215,284.681,294.29,299.305,288.44,301.881z"/>
	<path opacity="0.25" fill="none" stroke="#1A1718" stroke-miterlimit="10" d="M192.56,296.244
		c14.842-0.709,84.826-4.261,88.802-2.486c3.975,1.777,9.742,5.613,7.079,8.123c-2.664,2.509-93.474-1.958-98.408-5.04"/>
	<path fill="none" stroke="#1A1718" stroke-miterlimit="10" d="M188.15,315.233c-9.962-0.816-17.059-21.471-9.975-21.471
		c4.165,0,5.542,6.47,6.923,9.155c1.381,2.685-5.576-14.912,2.003-14.4c7.449,0.502,5.688,15.104,4.358,16.093
		c-1.328,0.992,8.84-11.236,12.288-8.64C208.312,299.407,196.32,315.903,188.15,315.233z"/>
	<path fill="none" stroke="#1A1718" stroke-miterlimit="10" d="M219.356,401.362c3.274,6.54,17.271,74.391,19.926,75.719
		c2.658,1.329,23.024,9.299,22.14,13.728s0.444-35.867,0-38.08c-0.442-2.214-24.812-49.058-28.075-52.905
		C230.084,395.975,219.356,401.362,219.356,401.362z"/>
	<path fill="none" stroke="#1A1718" stroke-miterlimit="10" d="M225.997,390.734c5.757-2.211,17.379-8.209,17.324-6.317
		c-0.054,1.891,3.494,12.014-0.988,12.897c-4.482,0.887-27.508,8.417-31.492,8.859c-3.986,0.442-9.312-11.894-8.588-13.667
		c0.72-1.772,14.134,3.985,13.451,1.773c-0.684-2.216-8.324-19.721-6.445-21.426c1.873-1.707,12.436-5.161,11.615-1.81
		C220.055,374.394,225.997,390.734,225.997,390.734z"/>
	<polygon fill="none" stroke="#1A1718" stroke-miterlimit="10" points="247.489,452.729 259.072,484.387 259.651,456.936 	"/>
	<polygon fill="none" stroke="#1A1718" stroke-miterlimit="10" points="226.885,402.581 247.489,452.729 236.516,462.027 
		222.678,403.8 	"/>
	<path fill="none" stroke="#1A1718" stroke-miterlimit="10" d="M81.053,478.394c-2.658-3.439,1.257-8.461,4.135-13.223
		c2.879-4.762,48.527-10.253,57.317-8.458c8.787,1.795,21.281,15.056,22.83,22.973c6.421-4.26,15.498,0.276,23.283,0
		c7.785-0.274-1.517,36.363-1.517,36.363s-4.274,2.436-8.926,2.745c-4.65,0.312-65.093,6.996-79.852,6.996
		c-14.763,0-37.047-7.306-40.367-15.335c-3.321-8.03,9.962-22.523,20.588-30.77c10.627-8.244,38.524,14.887,46.853,19.536"/>
	<path fill="none" stroke="#1A1718" stroke-miterlimit="10" d="M157.035,518.794c-1.934-9.597-8.187-22.586-14.53-29.756
		c-6.701-7.573,13.648-1.634,16.305,9.065s-9.888-26.233-7.2-26.778c8.189-1.658,17.594,24.062,17.371,30.039
		c-0.221,5.977,5.927-12.107,9.691-14.22c3.375-1.893-4.181,29.225-7.138,30.453C167.871,519.122,157.035,518.794,157.035,518.794z"
		/>
	<path opacity="0.25" fill="none" stroke="#1A1718" stroke-miterlimit="10" d="M141.157,250.974c11.336,1.165,38.346,1.491,42.774,0
		s-3.983,5.948-18.597,5.105C150.723,255.237,141.157,250.974,141.157,250.974z"/>
	<path opacity="0.25" fill="none" stroke="#1A1718" stroke-miterlimit="10" d="M215.163,174.097
		c-3.778,4.609,2.57,12.094-5.821,15.001c-7.979,2.765-21.415,4.13-14.781,4.663c6.633,0.533,17.98-0.435,22.091-3.319
		c4.113-2.887,11.965-11.383,11.542-13.994C227.771,173.835,215.163,174.097,215.163,174.097z"/>
	<path opacity="0.25" fill="none" stroke="#1A1718" stroke-miterlimit="10" d="M94.712,188.398c5.16-0.401,9.645-3.03,12.499-9.593
		c2.857-6.566,0.198-9.353,2.857-9.353s8.757,0.623,7.705,2.903c-1.054,2.278-6.783,15.169-13.007,16.395
		C98.544,189.979,94.712,188.398,94.712,188.398L94.712,188.398z"/>
	<path opacity="0.25" fill="none" stroke="#1A1718" stroke-miterlimit="10" d="M361.045,439.783
		c6.208-7.868,21.933-25.343,21.818-32.947c-0.114-7.601-85.393-94.283-120.94-103.83
		C279.192,318.298,365.04,393.835,361.045,439.783z"/>
	<path opacity="0.25" fill="none" stroke="#1A1718" stroke-miterlimit="10" d="M137.884,381.642
		c7.083,0.238,35.658,14.981,40.292,18.967c6.07,12.765,16.824,40.02,20.782,49.727c3.959,9.704,17.644,55.077,18.849,52.959
		c3.321-5.843-19.68-100.728-38.284-112.336C173.098,386.948,137.884,381.642,137.884,381.642z"/>
	<path opacity="0.25" fill="none" stroke="#1A1718" stroke-miterlimit="10" d="M129.575,491.108c-0.891,7.196,0,13.402-4.079,8.084
		c-8.353-10.889-12.688-4.094-18.331-12.074c-5.642-7.978-14.431-5.727-18.817-7.482c-4.385-1.754-12.511-7.966-5.213-11.14
		c7.299-3.174,14.964-5.274,19.397,0C106.966,473.772,130.466,483.915,129.575,491.108z"/>
	<path opacity="0.25" fill="none" stroke="#1A1718" stroke-miterlimit="10" d="M235.084,326.983
		c2.872-3.552,2.091-8.865,8.237-8.865s12.896,4.873,8.532,0c-4.364-4.877-7.606-9.059-11.418-7.851
		c-3.809,1.207-17.054,5.122-14.104,8.286C229.28,321.72,235.084,326.983,235.084,326.983z"/>
	<path opacity="0.25" fill="none" stroke="#1A1718" stroke-miterlimit="10" d="M152.149,300.255
		c-4.857,2.663-7.575,7.481-10.035,7.58c-2.461,0.098-2.893-0.77-0.957,4.02c1.934,4.787,6.417,3.768,11.577,4.164
		c5.161,0.394,6.595-2.979,7.606-10.3C161.349,298.397,152.149,300.255,152.149,300.255z"/>
</g>
</svg>
