<?xml version="1.0" encoding="utf-8"?>
<!-- Generator: Adobe Illustrator 16.0.0, SVG Export Plug-In . SVG Version: 6.00 Build 0)  -->
<!DOCTYPE svg PUBLIC "-//W3C//DTD SVG 1.1//EN" "http://www.w3.org/Graphics/SVG/1.1/DTD/svg11.dtd">
<svg version="1.1" xmlns="http://www.w3.org/2000/svg" xmlns:xlink="http://www.w3.org/1999/xlink" x="0px" y="0px" width="424px"
	 height="569.4px" viewBox="0 0 424 569.4" enable-background="new 0 0 424 569.4" xml:space="preserve">
<g id="Layer_1">
</g>
<g id="Layer_2">
	<g id="Layer_3">
	</g>
</g>
<g id="Layer_4">
</g>
<g id="Layer_5">
	<path fill="none" stroke="#1A1718" stroke-miterlimit="10" d="M339.587,283.546c6.816-0.705,14.455-4.464,14.925-6.814
		c0.47-2.352,10.812-27.146,12.692-29.615c1.88-2.467,7.873-3.644,6.933,3.76c-0.94,7.404-1.563,15.277-3.308,15.513
		c-1.745,0.235,0.253,0.471,6.717,1.881c6.463,1.41,11.281,4.87,10.105,9.486s-4.113,10.372-8.108,12.253
		c-3.996,1.882-26.275,10.918-35.231,10.219C335.356,299.528,339.587,283.546,339.587,283.546z"/>
	<path fill="none" stroke="#1A1718" stroke-miterlimit="10" d="M226.184,433.38c7.58-3.173,45.517-9.277,50.591-9.166
		s7.08-9.433,7.28-14.194c0.201-4.763-6.046-14.01-19.442-16.125c-13.397-2.115-34.197,19.299-37.019,27.365
		C224.773,429.325,226.184,433.38,226.184,433.38z"/>
	<path fill="none" stroke="#1A1718" stroke-miterlimit="10" d="M262.263,518.347c2.82-2.938,29.731-4.58,19.038,24.916
		c-26.677,3.418-32.788-0.12-32.788-0.12l-1.645-22.446L262.263,518.347z"/>
	<path fill="none" stroke="#1A1718" stroke-miterlimit="10" d="M219.485,520.815c2.821-2.939,29.732-4.581,19.039,24.915
		c-26.677,3.418-32.787-0.12-32.787-0.12l-1.646-22.446L219.485,520.815z"/>
	<path fill="none" stroke="#1A1718" stroke-miterlimit="10" d="M234.41,81.535c-9.872-17.861-20.213-53.587-46.067-49.356
		c-25.853,4.23-34.784,24.444-43.245,31.024c-8.462,6.58-51.551-14.254-76.151-2.35c-29.144,14.103-30.554,76.619-11.281,95.894
		c-59.229,14.65-46.066,68.629-3.291,73.329c-29.613,12.171-49.356,34.315,4.23,34.315c-41.365,36.82,14.572,25.854,40.896,5.641
		c-24.443,24.913-15.982,72.39,46.536,34.657c-5.641,22.23,11.752,52.775,22.094,36.322c8.349-13.282,54.058-41.836,54.058-60.638"
		/>
	<path opacity="0.25" fill="none" stroke="#1A1718" stroke-miterlimit="10" d="M232.119,73.427
		c70.039-19.742,100.968,62.944,97.226,68.224c11.418,7.519,27.824,49.2-1.486,54.717c3.033,6.613,35.35,31.229-21.028,43.491
		c-11.388,3.357-34.242,32.93-29.769,36.546c4.473,3.616-24.084,19.999-35.719,3.876c-11.633-16.124,34.239-108.479,17.297-137.22
		c-16.943-28.738-26.521-68.576-26.521-68.576"/>
	<path opacity="0.25" fill="none" stroke="#1A1718" stroke-miterlimit="10" d="M85.869,220.36c12.087,0,5.641,42.711,28.909,36.731
		c-3.878,20.664,20.469,39.324,29.262,27.071c1.058,18.773,11.079,29.405,26.516,20.211c15.438-9.193,46.32-17.137,46.32-24.094
		c0-17.887-30.193,5.734-43.582-14.891c-7.861-12.11-14.564-125.452-28.901-157.999c-21.153,43.95-51.825,35.67-40.19,54.306
		C49.187,154.193,67.361,220.36,85.869,220.36z"/>
	<g>
		<path fill="none" stroke="#1A1718" stroke-miterlimit="10" d="M295.768,284.7c-8.462,0-13.881-30.65,3.512-41.461
			c17.392-10.812,63.929-5.642,31.024-46.067c15.448,2.82,22.562-44.188,1.41-54.998c13.632-3.163,53.588-59.228-14.102-55.469
			c32.434-59.696-20.883-48.13-32.165-40.429c-14.75-58.753-48.011,7.657-59.969,13.636"/>
		<path fill="none" stroke="#1A1718" stroke-miterlimit="10" d="M232.315,77.516c3.646-0.174,7.135-0.271,11.025-0.682
			c16.836-1.771,72.391,14.46,81.322,72.335c8.931,57.874-11.098,93.129-53.966,109.582c-14.747,5.659-31.484,9.647-47.75,12.331
			c1.309,2.956,2.624,5.899,3.941,8.821"/>
		<path fill="none" stroke="#1A1718" stroke-miterlimit="10" d="M191.159,103.266c-22,8.755-41.718,9.895-46.767,4.125
			c6.581,44.891-37.001,63.423-37.37,68.896c-0.446,6.594,7.237,26.898,15.936,48.351c23.759-2.455,32.819,45.16,29.19,50.087
			c10.484,1.845,39.782,1.475,70.799-3.642"/>
		<path fill="none" stroke="#1A1718" stroke-miterlimit="10" d="M222.947,271.082c16.266-2.684,33.003-6.672,47.75-12.331
			c42.868-16.453,62.896-51.708,53.966-109.582c-8.932-57.875-64.486-74.105-81.322-72.335c-3.891,0.41-7.38,0.508-11.025,0.682
			c-12.566,11.719-27.312,20.241-41.156,25.75"/>
	</g>
	<path fill="none" stroke="#1A1718" stroke-miterlimit="10" d="M91.921,182.087c12.614-2.934,25.229-5.867,37.843-8.801
		c6.632-1.542,13.264-3.083,19.896-4.625c0.569-0.133,1.139-0.265,1.709-0.397c-0.513,0.119-0.986,0.185,0.17-0.004
		c3.218-0.528,6.438-1.048,9.656-1.567c30.355-4.896,60.75-9.569,91.205-13.81c15.014-2.091,30.051-4.065,45.129-5.631
		c7.782-0.809,17.277-2.825,25.055-1.066c3.627,0.821,6.513-4.444,2.034-5.456c-7.249-1.641-15.88,0.008-23.141,0.686
		c-14.657,1.368-29.263,3.327-43.847,5.312c-32.121,4.37-64.165,9.342-96.17,14.493c-23.953,3.856-47.499,10.273-71.12,15.766
		C86.022,177.989,87.687,183.07,91.921,182.087L91.921,182.087z"/>
	<path fill="none" stroke="#1A1718" stroke-miterlimit="10" d="M196.329,206.587c9.809-1.111,18.629-4.365,26.412-10.521
		c12.697-10.043,11.197-28.019,8.088-42.11c-0.057-0.016-0.115-0.029-0.174-0.045c-24.961,0.173-52.812,3.503-76.094,13.109
		c-0.633,0.262-5.283,2.562-4.943,3.45c3.249,8.515,3.966,17.849,9.166,25.569C166.83,207.986,183.666,207.813,196.329,206.587
		c1.971-0.191,4.895-3.714,5.652-3.787c-13.125,1.27-28.617,1.197-37.195-10.46c-5.453-7.408-5.97-17.194-9.166-25.568
		c-1.648,1.149-3.296,2.3-4.943,3.449c10.14-4.185,21.236-6.288,31.974-8.271c5.353-0.989,41.267-8.423,42.704-1.909
		c2.363,10.716,3.045,22.88-2.64,32.687c-4.367,7.536-12.739,9.166-20.733,10.072C200.005,203.024,197.11,206.499,196.329,206.587z"
		/>
	<path fill="none" stroke="#1A1718" stroke-miterlimit="10" d="M264.131,148.892c3.772,9.081,7.12,18.306,11.577,27.09
		c3.791,7.479,8.788,15.752,16.939,18.981c16.328,6.47,24.322-21.534,27.19-32.2c1.054-3.917,4.329-13.231,1.386-17.014
		c-3.298-4.234-10.16-3.938-14.931-3.902c-13.599,0.104-27.418,2.594-40.756,5.107c-4.034,0.761,1.142,4.884,3.554,4.429
		c9.177-1.729,18.43-3.129,27.707-4.173c6.026-0.679,12.255-1.356,18.309-0.676c1.699,0.191,0.432,0.484,0.218-0.493
		c0.2,0.913,0.104,1.919,0.064,2.841c-0.146,3.304-0.942,6.592-1.71,9.796c-1.398,5.845-10.447,37.561-20.707,32.252
		c-6.908-3.575-10.87-14.025-13.916-20.65c-3.139-6.825-5.68-13.9-8.559-20.834C269.575,147.227,262.831,145.762,264.131,148.892z"
		/>
	<path fill="none" stroke="#1A1718" stroke-miterlimit="10" d="M158.312,158.566c13.687-3.301,23.144-16.312,33.507-24.928
		c7.488-6.224,15.201-8.517,24.588-4.706c4.652,1.889,7.117,6.824,11.686,8.973c2.831,1.33,7.544-3.591,3.922-5.294
		c-4.463-2.098-7.146-6.705-11.685-8.971c-6.515-3.253-14.944-3.069-21.532-0.305c-7.308,3.067-13.377,8.96-19.078,14.285
		c-5.854,5.466-12.464,13.466-20.574,15.423C155.858,153.837,153.833,159.647,158.312,158.566L158.312,158.566z"/>
	<path fill="none" stroke="#1A1718" stroke-miterlimit="10" d="M253.3,138.788c9.739,9.045,18.611,7.441,29.01,1.183
		c5.671-3.414,11.121-7.188,16.743-10.683c2.222-1.381,4.497-2.791,6.923-3.79c1.375-0.565,3.755,4.629,3.997,5.824
		c0.337,1.663,7.188,0.033,6.817-1.802c-2.072-10.24-12.688-6.551-18.839-3.12c-5.466,3.049-10.648,6.608-15.903,10.001
		c-2.862,1.847-5.742,3.674-8.74,5.294c-4.895,2.646-10.137-2.063-13.602-5.282C258.294,135.103,252.063,137.64,253.3,138.788
		L253.3,138.788z"/>
	<path fill="none" stroke="#1A1718" stroke-miterlimit="10" d="M251.434,178.194c2.8-5.034,6.769-11.185,12.883-12.39
		c3.425-0.677,5.734,1.102,7.44,3.851c2,3.224,2.771,7.191,1.697,10.862c-1.281,4.377-5.98,5.695-10.014,5.756
		c-1.705,0.025-0.986,2.082-0.386,2.831c1.065,1.33,2.675,2.168,4.374,2.143c5.635-0.085,10.671-2.465,12.331-8.138
		c1.464-5.001-0.731-10.559-3.557-14.628c-3.273-4.715-8.767-7.899-14.534-7.794c-7.502,0.136-12.845,7.743-16.078,13.563
		C244.29,176.589,250.212,180.395,251.434,178.194L251.434,178.194z"/>
	<path fill="none" stroke="#1A1718" stroke-miterlimit="10" d="M225.913,242.153c8.486-8.46,16.808-17.599,27.298-23.625
		c8.374-4.809,13.632,1.625,16.683,8.975c1.959,4.722,3.734,12.272,1.038,17.003c-0.413,0.726,3.427,0.431,4.048-0.655
		c5.857-10.275-3.855-31.245-16.738-28.951c-14.337,2.554-26.33,17.742-36.061,27.441
		C221.196,243.323,225.159,242.904,225.913,242.153L225.913,242.153z"/>
	<path fill="none" stroke="#1A1718" stroke-miterlimit="10" d="M258.853,202.98c5.172-5.191,15.264-13.701,18.209-14.221
		c2.944-0.521,13.969,15.798,15.979,14.221c2.009-1.578,7.649-5.985,7.649-5.191c0,0.793-4.018,11.604-7.649,11.136
		c-3.633-0.472-12.094-11.136-22.343-6.779c-4.239,1.805-6.203,4.002-9.024,5.397c-2.82,1.396-14.57-6.275-17.861-4.562
		c-3.291,1.714-12.792,13.441-18.147,12.513c-5.356-0.928-10.34,0.012-8.788-4.69c2.962,1.41,8.194,2.017,10.013,0.942
		c6.17-3.645,9.401-15.061,13.632-18.107C244.751,190.592,250.785,192.654,258.853,202.98z"/>
	<g>
		<path fill="none" stroke="#1A1718" stroke-miterlimit="10" d="M169.071,172.957c5.641,6.167,14.682,11.324,22.265,11.523
			c11.579,0.303,17.619-3.232,16.029-13.083C196.728,171.802,169.071,172.957,169.071,172.957z"/>
		<path fill="none" stroke="#1A1718" stroke-miterlimit="10" d="M167.16,173.708c8.472,8.702,18.987,13.083,31.075,11.268
			c7.858-1.18,12.131-6.184,11.173-14.127c-0.054-0.444-0.921-0.461-1.205-0.45c-12.767,0.49-25.53,1.027-38.294,1.561
			c-1.297,0.055-4.412,2.111-1.676,1.997c9.545-0.399,19.09-0.793,28.636-1.179c2.846-0.116,5.692-0.229,8.539-0.339
			c0.348-0.014-0.04,4.445-0.19,5.201c-0.537,2.699-2.809,4.405-5.379,5.213c-10.614,3.331-21.74-3.336-28.857-10.646
			C170.114,171.317,166.276,172.801,167.16,173.708z"/>
	</g>
	<path fill="none" stroke="#1A1718" stroke-miterlimit="10" d="M164.766,174.202c7.219,1.913,15.171,1.807,22.57,1.591
		c8.46-0.246,19.756-0.979,26.161-7.3c1.393-1.375-3.133-6.727-4.24-5.633c-6.004,5.923-15.888,6.562-23.848,7.036
		c-7.477,0.445-16,0.635-23.314-1.305C159.753,167.973,163.11,173.763,164.766,174.202L164.766,174.202z"/>
	<g>
		<path fill="none" stroke="#1A1718" stroke-miterlimit="10" d="M280.946,158.626c3.761,3.762,10.684,7.051,16.923,7.051
			c7.991,0,9.183-9.916,8.931-11.779C306.55,152.034,280.946,158.626,280.946,158.626z"/>
		<path fill="none" stroke="#1A1718" stroke-miterlimit="10" d="M279.02,159.314c5.86,5.424,15.009,8.981,22.847,6.125
			c2.731-0.995,4.566-3.188,5.764-5.751c0.605-1.297,1.93-5.012,1.145-6.466c-1.162-2.156-11.562,0.963-13.125,1.293
			c-4.979,1.053-9.936,2.242-14.863,3.508c-2.387,0.613-2.057,1.813,0.322,1.204c6.67-1.714,13.391-3.356,20.184-4.501
			c0.65-0.108,3.419-0.894,3.492,0.077c0.143,1.899-0.508,3.878-1.181,5.62c-3.461,8.957-15.99,1.9-20.729-2.487
			C282.097,157.218,278.435,158.771,279.02,159.314z"/>
	</g>
	<path fill="none" stroke="#1A1718" stroke-miterlimit="10" d="M278.942,161.484c6.756-0.799,13.469-1.827,20.092-3.391
		c4.286-1.012,10.588-2.38,13.322-6.225c1.371-1.927-3.531-6.809-4.531-5.401c-2.691,3.782-8.341,4.826-12.555,5.908
		c-6.57,1.689-13.365,2.598-20.092,3.391C273.124,156.009,276.805,161.736,278.942,161.484L278.942,161.484z"/>
	<path fill="none" stroke="#1A1718" stroke-miterlimit="10" d="M300.896,157.769c-1.518,1.249-1.926,3.437-0.537,4.945
		c0.823,0.896,3.239,0.133,3.798-0.766c0.692-1.111,1.596-2.677,0.711-3.937c-1.059-1.506-3.309-1.352-4.756-0.526
		c-2.988,1.698-1.283,5.601,1.67,6.009c0.795,0.109,3.23-0.17,3.3-1.349c0.135-2.277-0.528-4.352-2.032-6.08
		c-0.69-0.793-2.445-0.194-3.159,0.216c-1.411,0.812-2.235,2.021-2.237,3.656c-0.002,1.645,1.768,2.751,3.195,2.951
		c0.983,0.14,2.126-0.115,2.891-0.773c0.621-0.534,0.489-1.27-0.373-1.391c-1.377-0.196-2.404-2.466-0.958-3.297
		c-1.053,0.072-2.106,0.145-3.159,0.216c1.213,1.394,1.861,3.18,1.752,5.033c1.1-0.448,2.199-0.899,3.299-1.348
		c-1.047-0.145-1.574-1.137-1.682-2.105c0.008-0.092,0.018-0.183,0.027-0.274c0.294-0.873-0.354-0.805-1.942,0.204
		c0.253,0.186,0.337,0.438,0.408,0.726c0.166,0.675-0.419,1.492-0.748,2.022c1.266-0.256,2.53-0.511,3.798-0.766
		c-0.674-0.732-0.833-2.065-0.002-2.75c0.665-0.547,0.449-1.235-0.373-1.391C302.813,156.811,301.655,157.144,300.896,157.769
		L300.896,157.769z"/>
	<path fill="none" stroke="#1A1718" stroke-miterlimit="10" d="M195.606,175.05c-1.267,2.005-0.877,4.877,1.229,6.148
		c2.212,1.335,5.911,0.56,7.149-1.8c1.336-2.545-0.93-5.117-3.541-5.115c-2.547,0.005-4.998,2.452-4.072,5.061
		c0.997,2.804,4.826,2.308,6.768,0.985c2.277-1.549,1.844-4.838-0.484-6.067c-2.613-1.382-6.421,0.208-7.098,3.152
		c-0.697,3.029,2.268,4.854,4.907,4.844c0.89-0.003,2.134-0.673,2.254-1.644c0.132-1.065-1.095-1.329-1.885-1.326
		c-0.668,0.003-1.228-1.054-1.237-1.605c-0.005-0.331,0.123-0.742,0.379-0.966c-0.111,0.098-0.549-0.196,0.004,0.18
		c0.32,0.217,0.879,1.229,0.455,1.588c0.025-0.021,0.186-0.075,0.197-0.07c-0.219-0.069-0.268-0.455-0.309-0.633
		c-0.045-0.196,0.016-0.554,0.13-0.72c-0.282,0.409-1.054-0.032-0.704,0.304c0.19,0.185,0.785,1.266,0.475,1.452
		c0.107-0.064-0.19,0.026-0.157,0.034c-0.369-0.095-0.552-0.354-0.763-0.657c-0.564-0.808-0.268-1.938,0.207-2.688
		c0.559-0.886-0.484-1.615-1.242-1.704C197.207,173.678,196.172,174.155,195.606,175.05L195.606,175.05z"/>
	<path fill="none" stroke="#1A1718" stroke-miterlimit="10" d="M249.116,277.2c4.583-2.82,25.719-3.102,29.95-1.462
		c4.23,1.639,17.628,11.333,30.143,13.625c12.516,2.292,19.214-4.23,19.391-1.763s1.587,12.771,0,13.611
		c-1.587,0.844-28.204,5.427-34.374,4.722s-18.93-2.486-20.041-1.244c-1.111,1.244,32.531,88.149,30.064,96.082
		c-2.469,7.933-20.424,18.454-21.658,23.742S266.374,332.94,265.493,319.7C264.612,306.462,249.116,277.2,249.116,277.2z"/>
	<path opacity="0.25" fill="none" stroke="#1A1718" stroke-miterlimit="10" d="M269.067,301.3
		c1.205,0.059,46.713,2.379,50.503-0.882c1.109-0.954,1.972,2.883,0.628,3.243c-25.924,6.976-47.252-2.828-44.934,3.918
		c1.367,3.978,31.184,90.633,29.562,93.759c-1.622,3.126-20.626,23.368-22.287,22.876c-1.662-0.491-45.025,7.617-48.375,4.797
		c-3.349-2.82-1.586-22.916,6.699-36.312C249.149,379.301,269.067,301.3,269.067,301.3z"/>
	<path fill="none" stroke="#1A1718" stroke-miterlimit="10" d="M216.136,271.384c2.962,4.936,8.99,25.736,12.692,23.62
		c3.702-2.115,28.188-7.733,23.797-12.124c-3.592-3.592-12.516-10.791-11.811-17.49L216.136,271.384z"/>
	<path fill="none" stroke="#1A1718" stroke-miterlimit="10" d="M245.574,381.026c6.346-0.881,41.188-14.539,41.776-4.583
		c0.59,9.955-6.521,59.933-9.871,68.042c-3.35,8.108-14.477,73.025-16.244,75.346c-2.82,3.702-11.811,6.347-14.367,1.947
		c-1.506-2.59,11.857-62.998,12.977-75.667c1.12-12.671,6.001-39.173,1.771-40.406c-4.295-0.287-11.741,0.934-15.437,1.608
		c-2.015,1.564-2.015,8.263-3.249,11.26c-1.233,2.996-22.739,95.364-23.974,102.062c-2.82,4.431-12.516,6.346-13.926,1.939
		c-1.41-4.407,13.967-130.796,13.574-137.494C218.211,378.382,245.574,381.026,245.574,381.026z"/>
	<path fill="none" stroke="#1A1718" stroke-miterlimit="10" d="M221.071,288.482c5.289,1.233,24.166-4.76,28.045-11.282
		c3.878-6.521,21.949,28.909,25.068,37.194s14.935,60.286,13.348,65.222c-1.586,4.936-52.358,14.102-60.114,7.932
		C219.661,381.379,221.248,291.303,221.071,288.482z"/>
	<path fill="none" stroke="#1A1718" stroke-miterlimit="10" d="M209.792,443.075c3.068-2.101,18.893-29.614,22.755-29.967
		s1.745-116.188,0.335-117.939s-14.277-23.785-16.746-23.785c-2.467,0-10.929,59.58-8.637,61.872
		c2.291,2.292,3.878,6.698,3.878,11.458S206.442,445.366,209.792,443.075z"/>
	<path fill="none" stroke="#1A1718" stroke-miterlimit="10" d="M169.423,305.581c-1.41,2.291-12.867,59.757,3.879,61.167
		s45.145-38.249,47.867-42.305"/>
	<path fill="none" stroke="#1A1718" stroke-miterlimit="10" d="M215.079,272.617c-3.033,0.084-20.313,32.81-21.724,34.748"/>
	<g opacity="0.25">
		<path fill="none" stroke="#1A1718" stroke-miterlimit="10" d="M240.286,408.939c2.82-1.648,22.916-4.646,28.557-4.116"/>
		<path fill="none" stroke="#1A1718" stroke-miterlimit="10" d="M242.86,409.327c3.316-1.634,7.869-1.781,11.475-2.309
			c4.211-0.615,8.612-1.31,12.877-1.033c1.762,0.116,7.756-2.032,3.26-2.324c-5.895-0.385-11.978,0.602-17.791,1.453
			c-4.859,0.709-10.5,1.239-14.97,3.438C234.686,410.043,241.586,409.953,242.86,409.327L242.86,409.327z"/>
	</g>
	<path fill="none" stroke="#1A1718" stroke-miterlimit="10" d="M381.13,284.163c-6.875,2.997-25.113,18.156-19.567,1.675
		l16.923-12.78c-7.764,3.617-17.957,15.865-20.977,12.428c-2.676-3.046,10.929-29.085,23.621-28.38
		c3.859,0.215,27.851,32.082,4.054,38.78s-20.271-1.939-20.448-2.468"/>
	<path fill="none" stroke="#1A1718" stroke-miterlimit="10" d="M381.13,106.566c-12.164-0.705-29.791,3.525-36.252,62.055
		c-4.76,43.118,14.392,59.82,26.852,65.486c-1.454,16.157-11.199,78.908,2.056,79.993c13.037,1.069,12.47-61.017,13.055-78.028
		c7.895-1.906,20.303-10.894,25.138-55.536C418.323,121.945,393.976,107.312,381.13,106.566z"/>
	<path opacity="0.25" fill="none" stroke="#1A1718" stroke-miterlimit="10" d="M236.407,252.495
		c-4.826,0.743,5.756-6.464,12.708-6.318c8.481,0.176,13.146,5.612,10.913,5.641c-1.005,0.012-7.082-1.466-11.516-1.209
		C243.094,250.919,237.765,252.285,236.407,252.495z"/>
	<path opacity="0.25" fill="none" stroke="#1A1718" stroke-miterlimit="10" d="M218.933,277.756
		c5.053-2.354,25.726-3.051,25.584-6.372s0.938-4.042-2.553-4.042c-3.49,0-25.419,4.923-26.885,5.275
		C213.612,272.97,215.889,279.175,218.933,277.756z"/>
	<path opacity="0.25" fill="none" stroke="#1A1718" stroke-miterlimit="10" d="M166.585,318.841
		c-0.246-1.803,0.437-4.342,2.845-5.134c2.407-0.792,18.157-6.496,21.864-7.152c0.781-0.139,3.064,7.56,1.436,7.56
		c-1.631,0-23.088,7.703-24.893,8.036S166.585,318.841,166.585,318.841z"/>
	<path opacity="0.25" fill="none" stroke="#1A1718" stroke-miterlimit="10" d="M193.749,331.669
		c2.732-0.705,6.434-11.105,8.902-15.071c2.468-3.966,9.591-14.97,12.339-14.715c2.749,0.255,3.878,7.987,7.38,11.014
		c1.875-9.343,8.045-8.718,9.189-11.014c1.146-2.296-0.088-9.259-2.996-12.872s-18.591-9.162-20.184-7.139
		c-1.592,2.022-15.398,25.237-15.367,27.998C193.044,312.632,193.749,331.669,193.749,331.669z"/>
	<path fill="none" stroke="#1A1718" stroke-miterlimit="10" d="M216.876,311.222c-2.15-10.753,11.6-16.24,14.772-16.053
		s-10.62-21.922-13.595-22.236c-2.975-0.315-7.666,2.95-8.406,6.342C208.909,282.665,209.79,299.94,216.876,311.222z"/>
	<path opacity="0.25" fill="none" stroke="#1A1718" stroke-miterlimit="10" d="M222.37,325.147
		c0.288,4.23-12.291,59.425-11.65,64.941c0.641,5.518-1.282-38.854,0.48-50.487C212.964,327.968,222.37,325.147,222.37,325.147z"/>
	<path fill="none" stroke="#1A1718" stroke-miterlimit="10" d="M336.355,274.724c-1.765-0.822-3.109,4.742-3.796,9.439
		c-0.151,0.048-0.309,0.054-0.467,0.041c-2.521-4.855-6.229-10.849-8.605-9.472c-3.35,1.939-6.698,33.61,0,35.138
		c3.811,0.869,6.646-1.224,8.291-4.023c0.761,1.373,1.451,2.779,1.757,4.023c0.882,3.585,4.054,0.294,5.993-1.646
		c1.939-1.938,4.23-2.291,4.76-7.013C344.816,296.493,338.647,275.79,336.355,274.724z"/>
	<path opacity="0.25" fill="none" stroke="#1A1718" stroke-miterlimit="10" d="M238.522,408.939
		c-1.762,2.582-16.678,92.937-15.965,92.659c0.713-0.278,22.664-90.958,22.488-93.426
		C244.869,405.705,238.522,408.939,238.522,408.939z"/>
	<path opacity="0.25" fill="none" stroke="#1A1718" stroke-miterlimit="10" d="M262.144,405.528
		c-0.686-2.976,8.109-2.062,8.99-0.767s-20.336,91.111-19.511,86.84C252.448,487.329,265.846,421.569,262.144,405.528z"/>
	<path fill="none" stroke="#1A1718" stroke-miterlimit="10" d="M209.433,221.146c2.294-2.457,8.994,1.408,8.994,3.995
		c0,2.223-45.957,52.204-54.996,64.554c-1.479,2.02-7.646,4.728-6.412-0.913C158.577,281.655,207.02,223.731,209.433,221.146z"/>
	<path fill="none" stroke="#1A1718" stroke-miterlimit="10" d="M192.742,220.854c-4.542-5.917-10.422-0.936-10.422-0.936
		c-3.932-2.181-9.289-1.086-10.875,0.788s-12.691,10.571-5.111,24.025c7.579,13.456,13.572,19.097,13.572,19.097
		s-12.339,24.581-9.871,37.938l14.865-9.557c1.881-7.992,7.796-31.024,11.419-31.024c2.265,0,14.567,5.792,24.13-7.757
		c2.115-2.996,1.393-13.875-0.352-17.098c-3.881-7.173-11.668-4.042-8.473,4.221c3.707,9.59-8.18,11.115-12.467,8.411
		c-7.615-4.799-5.235-16.42,4.359-20.812c4.332-1.983,2.604-4.975,1.1-6.963C202.406,218.264,192.742,220.854,192.742,220.854z"/>
	<path opacity="0.25" fill="none" stroke="#1A1718" stroke-miterlimit="10" d="M255.683,274.732
		c5.977,0.917,14.351-1.719,15.015,0.038s3.878,20.365,0,24.131c-1.506,1.463,3.258,1.332-2.706,2.312
		S252.671,274.271,255.683,274.732z"/>
	<path fill="none" stroke="#1A1718" stroke-miterlimit="10" d="M242.347,271.384c2.82,3.349,20.4,26.441,25.645,29.83
		c1.847-13.43,0.675-20.312,0.498-23.661C268.313,274.204,242.347,271.384,242.347,271.384z"/>
	<path fill="none" stroke="#1A1718" stroke-miterlimit="10" d="M113.362,188.747c-54.528-42.367-51.467,60.133,12.682,34.749"/>
	<path fill="none" stroke="#1A1718" stroke-miterlimit="10" d="M197.984,293.621c0.762-3.484,0.221-7.919-1.238-9.898
		c-2.468-3.349-32.082,11.281-38.429,18.333c-3.213,3.57-2.989,5.602-1.461,6.693c-2.658,1.371,0.279,1.338,3.566,1.219
		c-1.844,3.725-1.554,7.612,6.92,4.479c13.01-4.812,33.451-8.229,33.105-13.234C200.198,297.608,200.14,294.706,197.984,293.621z"/>
	<path fill="none" stroke="#1A1718" stroke-miterlimit="10" d="M208.933,224.38c-3.535-6.231,4.459-8.834,2.621-17.248
		c0.938,1.233,9.643,5.473,10.259,10.373C223.363,229.837,212.468,230.611,208.933,224.38z"/>
</g>
</svg>
