<?xml version="1.0" encoding="utf-8"?>
<!-- Generator: Adobe Illustrator 16.0.0, SVG Export Plug-In . SVG Version: 6.00 Build 0)  -->
<!DOCTYPE svg PUBLIC "-//W3C//DTD SVG 1.1//EN" "http://www.w3.org/Graphics/SVG/1.1/DTD/svg11.dtd">
<svg version="1.1" xmlns="http://www.w3.org/2000/svg" xmlns:xlink="http://www.w3.org/1999/xlink" x="0px" y="0px" width="424px"
	 height="569.4px" viewBox="0 0 424 569.4" enable-background="new 0 0 424 569.4" xml:space="preserve">
<g id="Layer_1">
</g>
<g id="Layer_2">
	<g id="Layer_3">
	</g>
</g>
<g id="Layer_4">
</g>
<g id="Layer_5">
	<path fill="none" stroke="#1A1718" stroke-miterlimit="10" d="M131.526,514.693c-7.257-3.174-33.896,1.752-15.896,24.61
		c15.156,0,35.445,1.464,36.644,0.024c1.2-1.44-3.524-22.521-5.925-24.447C143.948,512.956,131.526,514.693,131.526,514.693z"/>
	<path fill="none" stroke="#1A1718" stroke-miterlimit="10" d="M50.629,537.919c-1.777-2.391-4.406-25.851,2.482-24.963
		c9.324,1.201,9.896-5.707,22.92-5.036c23.277,1.198,17.039,29.038,17.039,29.038S53.304,541.519,50.629,537.919z"/>
	<path fill="none" stroke="#1A1718" stroke-miterlimit="10" d="M70.312,432.819c-8.399,0.722-20.16-7.438-17.28-22.798
		c2.88-15.359,7.07,3.599,9.896,8.4c2.824,4.8-4.375-12.51-2.455-14.296c1.92-1.784,7.041,11.604,9.52,11.03
		c2.48-0.575,7.697,13.104,6.889,15.744C76.072,433.541,70.312,432.819,70.312,432.819z"/>
	<path fill="none" stroke="#1A1718" stroke-miterlimit="10" d="M62.271,365.025c-5.285,1.677,15.178,78.713,14.609,81.954
		c-0.569,3.239-27.369,60.217-23.77,65.977c3.6,5.759,14.873,6.652,14.76,3.239c-0.18-5.4,30.965-55.484,29.859-68.857
		c-0.917-11.098-7.139-51.108-7.139-51.108l16.168,1.375c0,0-11.389,42.729-8.129,54.774c4.14,15.299,33.317,61.657,34.037,64.177
		c0.72,2.521,14.398,3.96,11.28-3.6c-3.121-7.56-19.398-58.057-25.306-64.339c-3.093-8.705,22.306-67.517,12.666-79.035
		C121.671,358.063,62.271,365.025,62.271,365.025z"/>
	<path fill="none" stroke="#1A1718" stroke-miterlimit="10" d="M110.87,202.188c0.239-5.278,12.719-40.796,36.959-30.958
		c24.238,9.84,16.798,57.356,12.24,57.598C155.509,229.068,110.87,202.188,110.87,202.188z"/>
	<path fill="none" stroke="#1A1718" stroke-miterlimit="10" d="M268.544,88.766c11.52-1.772,153.115,5.909,85.917,93.744
		c64.318,42.239,10.559,38.4,0.96,49.438c18.24,2.508,39.052,26.348,25.44,36.48c-12.559,9.348-25.44,3.633-34.561,14.055
		c-9.119,10.423,22.561,29.624,2.4,49.302c-25.605,24.994-43.677,1.466-52.317,6.265c-8.64,4.8,10.08,58.793-30.239,58.532
		c37.938-20.1-57.95-17.266-47.999-60.957c-2.559,56.934-44.637,31.199-30.236,53.759c-13.922-3.359-44.346-47.225-52.561-64.799
		c-8.406-17.99-62.767-65.047-58.313-78.235c12.479-36.958,70.379,16.219,89.063,7.274c41.531-19.885,108.206-47.928,108.206-69.537
		C274.305,152.75,268.544,88.766,268.544,88.766z"/>
	<path fill="none" stroke="#1A1718" stroke-miterlimit="10" d="M110.112,259.546c-14.001-2.159-50.901,18.251-44.12,27.601
		c5.665,7.811,5.49,9.981,7.703,9.508C75.907,296.181,110.112,259.546,110.112,259.546z"/>
	<path opacity="0.25" fill="none" stroke="#1A1718" stroke-miterlimit="10" d="M91.812,233.31
		c-4.414,1.077-16.182,4.694-15.035,12.078c1.145,7.385,6.08,16.229,9.4,20.402c3.32,4.173,66.006,67.074,78.649,81.473
		c12.641,14.398,28.671,3.671,33.88-2.52c10.799-12.835,8.279-40.697,21.958-39.968c5.4,21.608,38.879,12.717,41.04-2.044
		c24.478,16.812,44.286-13.015,30.126-29.178c17.399-11.916,36.83-68.483-31.927-41.485
		C262.907,228.076,91.812,233.31,91.812,233.31z"/>
	<path fill="none" stroke="#1A1718" stroke-miterlimit="10" d="M185.511,70.195c6.721-9.599,30.238-40.798,71.037-21.599
		s39.359,52.318,31.199,54.239c-8.16,1.918-58.084,4.798-69.602-5.282C206.63,87.475,185.511,70.195,185.511,70.195z"/>
	<path opacity="0.25" fill="none" stroke="#1A1718" stroke-miterlimit="10" d="M189.454,67.792
		c6.014-3.477,30.666-13.557,49.479-4.917c18.812,8.639,50.13,25.93,47.611,38.523c-2.521,12.595-100.846-30.516-98.877-33.606"/>
	<path fill="none" stroke="#1A1718" stroke-miterlimit="10" d="M202.308,70.675c19.178,1.689,60.739-1.71,92.639,45.12
		c-6.482,8.155-4.322,76.793,2.88,75.576c-15.602-6.941-52.8,40.096-22.558,55.458c-15.361,9.12-5.621,13.438-23.044,16.798
		c-17.422,3.358-59.138,26.777-103.192,8.162c-34.084-14.402-44.497-11.322-70.8-62.161c-14.033-27.118,8.883-64.074,9.842-70.793
		c0.96-6.721,9.061-4.75,8.16,0.958c-9.123,57.836,58.556,101.223,88.313,72.477c37.482-36.21,12.662-97.811-62.396-110.394
		c-9.503-1.593-3.839-6.24-2.399-7.681C121.192,92.756,153.731,66.39,202.308,70.675z"/>
	<path fill="none" stroke="#1A1718" stroke-miterlimit="10" d="M188.805,51.262c37.117,41.358,74.236,82.718,111.354,124.075
		c-0.943-1.98-1.889-3.96-2.832-5.939c-3.52,25.919-7.041,51.837-10.561,77.756c-0.26,1.917,3.441,5.687,3.389,6.065
		c2.33-17.156,4.66-34.314,6.992-51.473c1.116-8.227,2.234-16.454,3.35-24.681c0.445-3.271-1.33-6.111-3.477-8.504
		c-25.16-28.035-50.321-56.071-75.482-84.107C209.868,71.452,198.2,58.45,186.53,45.447
		C185.88,44.725,187.829,50.176,188.805,51.262L188.805,51.262z"/>
	<path fill="none" stroke="#1A1718" stroke-miterlimit="10" d="M238.069,110.051c-14.258,8.39-31.376,15.885-33.391,34.644
		c-1.468,13.675,8.732,27.681,18.924,35.568c9.843,7.616,23.113,9.067,35.045,7.102c10.692-1.76,20.983-6.513,29.687-12.902
		c3.766-2.765,8.86-5.976,5.55-10.628c-11.891-16.686-27.822-31.24-41.977-45.979c-2.412-2.512-4.829-5.021-7.256-7.52
		c-1.533-1.577-8.084-0.354-6.936,0.829c11.629,11.966,23.142,24.052,34.418,36.352c5.3,5.779,11.028,11.553,15.45,18.06
		c2.698,3.972-10.026,10.625-12.541,12.081c-11.515,6.668-25.505,10.186-38.252,5.13c-13.714-5.439-25.03-22.098-24.986-36.818
		c0.056-18.617,19.029-26.597,32.494-34.519C246.466,110.173,239.704,109.089,238.069,110.051z"/>
	<path fill="none" stroke="#1A1718" stroke-miterlimit="10" d="M184.464,50.354c-10.797,7.853-32.024,19.002-27.811,35.541
		c4.253,16.683,22.719,19.365,36.639,14.021c7.221-2.771,13.853-7.173,19.945-11.874c2.999-2.313,7.016-3.994,4.232-7.558
		c-7.892-10.1-17.682-19.047-26.749-28.082c-1.052-1.047-7.121-2.392-6.109-1.381c7.56,7.53,15.071,15.128,22.276,23.002
		c1.359,1.486,6.379,5.404,4.458,7.395c-3.726,3.862-8.419,6.95-12.917,9.813c-6.033,3.836-12.627,6.966-19.663,8.371
		c-10.375,2.074-16.558-7.696-15.546-17.247c1.472-13.895,17.672-22.033,27.648-29.287
		C191.409,52.676,185.782,49.397,184.464,50.354z"/>
	<path fill="none" stroke="#1A1718" stroke-miterlimit="10" d="M240.752,137.578c-4.229,4.803-8.024,11.545-7.378,18.143
		c1.168,11.94,16.695,12.107,25.475,11.484c4.544-0.322,1.721-6.633-2.211-6.354c-4.998,0.354-17.178,1.324-16.348-6.698
		c0.432-4.181,3.015-8.682,5.646-11.671C248.741,139.301,243.374,134.603,240.752,137.578L240.752,137.578z"/>
	<path fill="none" stroke="#1A1718" stroke-miterlimit="10" d="M182.385,67.792c-2.649,3.01-20.399,19.919,11.04,16.319"/>
	<path fill="none" stroke="#1A1718" stroke-miterlimit="10" d="M179.437,68.868c-2.891,3.245-6.62,6.705-7.516,11.142
		c-1.741,8.619,14.869,6.394,18.966,5.949c1.585-0.173,3.231-1.125,4.493-2.043c0.35-0.254,2.133-1.82,0.584-1.652
		c-3.821,0.416-19.256,2.598-17.639-5.412c0.813-4.028,4.391-7.198,7.008-10.135c1.049-1.176-1.318-0.575-1.697-0.438
		C182.143,66.823,180.511,67.663,179.437,68.868L179.437,68.868z"/>
	<path fill="none" stroke="#1A1718" stroke-miterlimit="10" d="M196.306,106.911c-16.561-33.304,39.118-33.304,31.678-2.169"/>
	<path fill="none" stroke="#1A1718" stroke-miterlimit="10" d="M198.392,106.352c-5.017-10.55-3.422-24.427,11.146-23.677
		c12.068,0.62,18.822,11.053,16.377,22.394c-0.264,1.217,3.885,0.527,4.138-0.65c3.103-14.387-7.583-24.564-21.732-23.664
		c-5.245,0.332-10.568,2.399-14.101,6.371c-5.127,5.766-2.943,14.159-0.002,20.346C194.788,108.67,198.83,107.273,198.392,106.352
		L198.392,106.352z"/>
	<path fill="none" stroke="#1A1718" stroke-miterlimit="10" d="M208.226,57.107c3.041,0.011,7.496-0.271,10.01,1.805
		c4.438,3.664,3.221,11.572,2.381,16.438c-0.383,2.217,6.102,5.16,6.576,2.413c1.288-7.468,1.178-15.915-5.539-20.802
		c-4.922-3.579-10.854-4.381-16.789-4.402C200.851,52.545,206.03,57.1,208.226,57.107L208.226,57.107z"/>
	<path fill="none" stroke="#1A1718" stroke-miterlimit="10" d="M269.021,122.575c3.659-1.085,7.229-0.204,10.211,2.14
		c6.065,4.764,6.062,13.691,5.181,20.593c-0.24,1.892,6.898,2.835,7.136,0.964c1.189-9.337-0.147-18.991-8.938-24.026
		c-5.17-2.962-12.655-3.898-18.386-2.199C260.682,121.098,267.382,123.06,269.021,122.575L269.021,122.575z"/>
	<path fill="none" stroke="#1A1718" stroke-miterlimit="10" d="M171.106,219.469c1.919,5.517,0.24,11.516-1.681,12.717
		c-1.919,1.201-8.879,9.119-3.359,14.4c5.519,5.279,30.155,8.409,21.601-13.56C182.385,219.469,171.106,219.469,171.106,219.469z"/>
	<path opacity="0.25" fill="none" stroke="#1A1718" stroke-miterlimit="10" d="M62.062,375.765
		c1.972,2.339,57.29,7.082,71.228-0.869c-1.318-10.036-9.458-9.393-9.458-9.393S54.531,366.83,62.062,375.765z"/>
	<path fill="none" stroke="#1A1718" stroke-miterlimit="10" d="M152.579,273.195c-2.832,3.147-27.549,32.744-27.071,44.745
		c0.48,11.999,2.296,48.585,6.376,52.424c4.082,3.839-56.788,7.682-71.86,0.481c-8.295-34.069,2.115-93.383,50.089-111.3
		c11.52,4.438-3.562,8.639,8.438,12.239s19.298-4.498,23.038-3.601C142.755,268.465,152.579,273.195,152.579,273.195z"/>
	<path fill="none" stroke="#1A1718" stroke-miterlimit="10" d="M152.579,273.195c13.92,14.888,20.449,128.912,9.687,160.834
		c10.85-6.47,8.843-14.402,14.122-13.442c5.28,0.96-1.439,17.761-4.8,17.761c-3.359,0,5.603-13.83,11.122-10.95
		c5.521,2.88-6.322,17.771-9.682,16.949s18.323-17.189,19.281-13.59c0.961,3.601-0.802,13.108-6.803,17.189
		c-5.999,4.081-24.437,12.898-32.928,4.32c-4.75-4.8,7.441-72.335,0-108.963c-7.438-36.628-19.871-38.161-20.59-40.802
		C131.269,299.864,148.968,269.334,152.579,273.195z"/>
	<path fill="none" stroke="#1A1718" stroke-miterlimit="10" d="M259.904,241.016c70.557-26.348,26.399,67.729-18.72,19.969"/>
	<path fill="none" stroke="#1A1718" stroke-miterlimit="10" d="M154.035,273.83c3.759,5.719,18.532,34.139,18.993,47.875
		c-6.003,8.748-16.801,12-23.494,9.257c-3.625-10.076-17.562-24.623-17.545-28.46C132.009,298.666,149.025,266.207,154.035,273.83z"
		/>
	<path opacity="0.25" fill="none" stroke="#1A1718" stroke-miterlimit="10" d="M82.166,397.108
		c8.875-0.797,20.227-1.522,28.501,2.275c1.735,0.8,4.825-1.699,2.408-2.809c-8.853-4.066-21.046-3.372-30.538-2.519
		C80.201,394.268,79.319,397.364,82.166,397.108L82.166,397.108z"/>
	<path opacity="0.25" fill="none" stroke="#1A1718" stroke-miterlimit="10" d="M74.048,195.619
		c53.033,99.338,136.898,77,161.377,56.726c0,0,15.002,12.53,10.322,12.997c-4.68,0.465-34.052,13.548-59.986,13.553
		c-39.852,0.008-71.771-21.497-82.109-30.608c-4.732-4.171-14.083-16.86-20.15-28.817C76.742,206.147,73.238,194.103,74.048,195.619
		z"/>
	<path fill="none" stroke="#1A1718" stroke-miterlimit="10" d="M125.03,252.345c-2.641,1.438-13.681-1.2-16.561,11.758
		c-2.88,12.961,23.857,13.792,26.498,10.912c2.64-2.881,4.461-12.111,10.941-11.15"/>
	<path opacity="0.25" fill="none" stroke="#1A1718" stroke-miterlimit="10" d="M113.751,399.701c0,0-14.429,40.199-15.543,50.281
		c-2.036,0.123,6.062-53.034,9.542-52.378C111.231,398.261,113.751,399.701,113.751,399.701z"/>
	<path opacity="0.25" fill="none" stroke="#1A1718" stroke-miterlimit="10" d="M97.03,450.911
		c-2.28-11.761-13.519-51.815-15.679-53.312c-2.159-1.496,8.994-2.955,9.24-1.368c0.245,1.589,7.875,53.964,7.157,54.681
		C97.03,451.628,97.03,450.911,97.03,450.911z"/>
	<path opacity="0.25" fill="none" stroke="#1A1718" stroke-miterlimit="10" d="M97.387,451.314
		c1.442-4.616-38.628,57.663-40.071,63.44c-0.956,3.826,8.487,3.706,11.007,2.145C65.656,514.899,98.595,460.732,97.387,451.314z"/>
	<path opacity="0.25" fill="none" stroke="#1A1718" stroke-miterlimit="10" d="M98.631,452.379
		c3.479,4.441,40.203,66.929,44.043,65.368c3.84-1.56-6.744,4.128-10.706-2.425C102.989,467.399,98.631,452.379,98.631,452.379z"/>
	<path opacity="0.25" fill="none" stroke="#1A1718" stroke-miterlimit="10" d="M150.579,336.58
		c-0.387,1.758,14.829,2.359,15.177-2.329c0.35-4.688-3.5-15.774-7.895-16.021C145.021,317.51,150.765,335.741,150.579,336.58z"/>
</g>
</svg>
